<svg width="50" height="37" viewBox="0 0 50 37" fill="none" xmlns="http://www.w3.org/2000/svg">
<path d="M18.4375 6.875L15.1875 4.0625C11.8125 6.27083 8.89583 9.47917 6.4375 13.6875C4.02083 17.8542 2.8125 21.8958 2.8125 25.8125C2.8125 28.8125 3.60417 30.9792 5.1875 32.3125C6.77083 33.6042 8.75 34.25 11.125 34.25C13.1667 34.25 14.8958 33.4583 16.3125 31.875C17.7292 30.2917 18.4375 28.5208 18.4375 26.5625C18.4375 21.6042 15.75 19.125 10.375 19.125L10.125 18.75C10.9583 14.625 13.7292 10.6667 18.4375 6.875ZM41.5625 6.875L38.375 4.0625C34.9583 6.27083 32.0208 9.47917 29.5625 13.6875C27.1458 17.8542 25.9375 21.8958 25.9375 25.8125C25.9375 28.8125 26.7292 30.9792 28.3125 32.3125C29.8958 33.6042 31.8958 34.25 34.3125 34.25C36.3542 34.25 38.0625 33.4583 39.4375 31.875C40.8542 30.2917 41.5625 28.5208 41.5625 26.5625C41.5625 21.6042 38.875 19.125 33.5 19.125L33.25 18.75C34.125 14.6667 36.8958 10.7083 41.5625 6.875ZM19.8125 0.875L26.75 6.875C22.0417 10.875 19.0417 14.2083 17.75 16.875C20.75 17.2083 22.8542 18.4792 24.0625 20.6875C25.0625 16.9375 26.8958 13.2292 29.5625 9.5625C32.2708 5.89583 35.25 3 38.5 0.875H43L49.875 6.875C45.2083 10.875 42.2292 14.2083 40.9375 16.875C46.0625 17.625 48.625 20.8542 48.625 26.5625C48.625 29.3958 47.4167 31.8125 45 33.8125C42.625 35.8125 39.0625 36.8125 34.3125 36.8125C29.2708 36.8125 25.9375 34.9375 24.3125 31.1875C22.5208 34.9375 18.125 36.8125 11.125 36.8125C7.95833 36.8125 5.35417 35.9375 3.3125 34.1875C1.27083 32.4375 0.25 29.6458 0.25 25.8125C0.25 21.5625 1.72917 17 4.6875 12.125C7.6875 7.25 11.25 3.5 15.375 0.875H19.8125Z" fill="#1B1B27"/>
</svg>
