<svg width="50" height="49" viewBox="0 0 50 49" fill="none" xmlns="http://www.w3.org/2000/svg">
<path d="M26.9254 48.9013H23.109C22.9633 48.8706 22.8176 48.8297 22.6693 48.8144C16.059 48.1267 10.5683 45.2664 6.34034 40.1565C2.02293 34.9419 0.213137 28.876 0.949321 22.1456C1.65483 15.7014 4.55611 10.3334 9.56114 6.21795C15.0263 1.71905 21.3529 -0.0498366 28.3696 0.929186C38.4512 2.33509 46.5441 10.0318 48.5559 20.0188C48.7527 21.0004 48.8677 21.9999 49.0211 22.9891V26.8055C48.9521 27.3014 48.8882 27.7973 48.8166 28.2932C47.4414 37.8866 40.2431 45.8517 30.8236 48.2162C29.5403 48.5383 28.229 48.6993 26.9254 48.9013ZM24.8778 34.3182C29.0802 34.3182 33.2801 34.3182 37.4824 34.3182C38.6506 34.3182 39.1567 33.8274 39.1593 32.6822C39.1644 27.4267 39.1618 22.1712 39.1593 16.9156C39.1593 16.7444 39.2437 16.5041 39.0289 16.4223C38.8551 16.3584 38.7426 16.5629 38.6199 16.6651C34.7269 19.8629 30.8389 23.0658 26.9484 26.2636C25.5706 27.3935 24.2823 27.396 22.9147 26.2713C18.996 23.053 15.0825 19.8297 11.1639 16.6114C11.054 16.522 10.9594 16.3456 10.7881 16.4299C10.6271 16.5092 10.691 16.6958 10.6756 16.8415C10.668 16.9233 10.6731 17.0076 10.6731 17.092C10.6731 22.2299 10.6731 27.3679 10.6731 32.5084C10.6731 33.8632 11.1306 34.3233 12.4803 34.3233C16.6137 34.3233 20.7496 34.3233 24.883 34.3233L24.8778 34.3182ZM37.6154 15.3129H12.3346C12.3985 15.5174 12.5442 15.5838 12.6567 15.6759C16.4015 18.7612 20.1463 21.844 23.8963 24.9267C24.6785 25.5709 25.1616 25.5709 25.9438 24.9267C29.1365 22.3015 32.3266 19.6763 35.5167 17.0485C36.1839 16.499 36.8485 15.9468 37.6154 15.3129Z" fill="#517629"/>
</svg>
