<svg width="49" height="49" viewBox="0 0 49 49" fill="none" xmlns="http://www.w3.org/2000/svg">
<path d="M0 25.3128V23.0915C0.0587925 22.9356 0.0715734 22.7694 0.0817982 22.6058C0.122697 21.8032 0.222389 21.0056 0.355311 20.2132C0.692729 18.1657 1.28832 16.1949 2.13953 14.3033C3.26682 11.8008 4.77241 9.55389 6.65888 7.56261C7.92676 6.22317 9.32499 5.03965 10.8613 4.02228C12.8858 2.68028 15.0611 1.66547 17.3923 0.977857C19.2072 0.441057 21.0605 0.118976 22.947 0.0320657C24.5292 -0.0420639 26.1115 0.0065038 27.6861 0.239117C29.5036 0.507518 31.2674 0.959964 32.98 1.61946C34.7668 2.30708 36.4462 3.2043 38.0208 4.29324C39.892 5.58923 41.5458 7.12039 42.9901 8.87905C43.9435 10.0396 44.7768 11.2793 45.4977 12.5958C46.4844 14.403 47.2359 16.3048 47.7344 18.3012C48.2149 20.2362 48.4782 22.1994 48.4322 24.1983C48.4194 24.7581 48.4399 25.3179 48.4066 25.8752C48.3402 26.9539 48.1868 28.0224 47.9721 29.0807C47.4736 31.532 46.6045 33.848 45.3852 36.0309C44.0381 38.4414 42.3229 40.5554 40.2549 42.3805C38.6088 43.8324 36.799 45.0415 34.823 46.0001C32.7755 46.9945 30.6309 47.6872 28.3891 48.0732C28.0184 48.1371 28.0005 48.1217 28.0005 47.7383C28.0005 42.3499 28.0005 36.9588 28.0005 31.5704C28.0005 31.532 28.0005 31.4911 28.0005 31.4528C28.0133 31.2279 28.0466 31.1921 28.2638 31.1818C28.3431 31.1793 28.4223 31.1818 28.499 31.1818C30.0506 31.1818 31.6022 31.1818 33.1564 31.1818C33.228 31.1818 33.297 31.1818 33.3686 31.1818C33.6216 31.1767 33.6472 31.1537 33.6932 30.9083C33.6983 30.8777 33.7034 30.847 33.706 30.8138C34.0229 28.7586 34.3374 26.7034 34.6543 24.6457C34.7182 24.2341 34.7157 24.2316 34.3016 24.2316C32.3384 24.2316 30.3778 24.2316 28.4146 24.2316C28.0031 24.2316 27.9954 24.2239 27.9954 23.8072C27.9954 22.5394 27.9954 21.2689 27.9954 20.0011C27.9954 19.6943 28.0082 19.3876 28.0389 19.0808C28.09 18.567 28.2255 18.0737 28.4734 17.6187C28.9719 16.701 29.772 16.2102 30.7689 15.9981C31.2111 15.906 31.6585 15.8754 32.1083 15.8728C32.9596 15.8677 33.8108 15.8728 34.662 15.8702C34.9585 15.8702 34.9866 15.837 34.9917 15.5456C34.9917 15.4894 34.9917 15.4357 34.9917 15.3795C34.9917 13.7256 34.9917 12.0692 34.9917 10.4153C34.9917 10.3438 34.9917 10.2722 34.9917 10.2032C34.9815 9.98333 34.9534 9.94754 34.7361 9.91175C33.3353 9.69192 31.9243 9.55644 30.5056 9.49765C29.8384 9.46953 29.1662 9.46953 28.499 9.53088C27.4152 9.63057 26.3671 9.85552 25.3677 10.2952C23.1438 11.2742 21.7251 12.9639 20.9966 15.2568C20.631 16.407 20.4828 17.5931 20.4802 18.7971C20.4777 20.4663 20.4802 22.138 20.4802 23.8072C20.4802 24.0901 20.3413 24.2316 20.0636 24.2316C18.2896 24.2316 16.5181 24.2316 14.7441 24.2316C14.4715 24.2316 14.3343 24.3662 14.3326 24.6354C14.3326 26.6753 14.3326 28.7177 14.3326 30.7575C14.3326 31.0387 14.4706 31.1793 14.7467 31.1793C16.4951 31.1793 18.2461 31.1793 19.9945 31.1793C20.0815 31.1793 20.1684 31.1767 20.2553 31.1818C20.424 31.1946 20.4623 31.2304 20.4751 31.394C20.4802 31.4809 20.4777 31.5678 20.4777 31.6547C20.4777 36.9818 20.4777 42.3064 20.4777 47.6335C20.4777 47.7051 20.4777 47.7767 20.4777 47.8457C20.47 48.0885 20.4291 48.1294 20.1939 48.0885C19.8054 48.0195 19.4194 47.9479 19.0334 47.8636C16.8581 47.3856 14.7901 46.6187 12.8244 45.5655C10.2503 44.1826 7.99577 42.3984 6.06329 40.2052C4.55514 38.4926 3.30771 36.6035 2.3338 34.5381C1.03781 31.7825 0.281181 28.8864 0.0843544 25.8471C0.0715734 25.6681 0.0639048 25.4841 0.00255619 25.3128H0Z" fill="#517629"/>
</svg>
