<svg width="49" height="49" viewBox="0 0 49 49" fill="none" xmlns="http://www.w3.org/2000/svg">
<path d="M23.6217 0.770508C24.1611 0.770508 24.7004 0.770508 25.2423 0.770508C25.3625 0.788401 25.48 0.816519 25.6002 0.821632C30.2499 1.05425 34.4881 2.50616 38.2559 5.23107C43.5344 9.05002 46.7757 14.1829 47.9592 20.6015C48.1535 21.6521 48.2097 22.7129 48.3248 23.7711V25.5528C48.3069 25.6729 48.2787 25.7905 48.2736 25.9107C48.0845 29.5584 47.0875 32.9683 45.3417 36.1738C41.0319 44.0826 32.3536 48.9496 23.3584 48.51C19.6826 48.331 16.2343 47.3674 13.0058 45.6113C5.03306 41.2734 0.186513 32.6871 0.587835 23.6382C0.751432 19.9471 1.67422 16.4604 3.49167 13.2498C7.24417 6.62163 12.8755 2.57007 20.3728 1.1386C21.4489 0.934104 22.5404 0.880424 23.6268 0.770508H23.6217ZM24.4422 40.1436C26.5485 40.1436 28.6523 40.1461 30.7586 40.141C31.2161 40.141 31.6814 40.141 32.1313 40.0771C36.6302 39.4278 39.7973 35.7955 39.8101 31.2531C39.8229 26.9204 39.8101 22.5876 39.8126 18.2574C39.8126 17.69 39.7743 17.125 39.6669 16.5678C38.854 12.3986 35.2677 9.39766 31.0193 9.37977C26.6201 9.36187 22.2209 9.37721 17.8191 9.37465C17.359 9.37465 16.9015 9.41811 16.449 9.4948C12.1623 10.2259 9.07951 13.8097 9.05395 18.1552C9.02583 22.5672 9.04883 26.9817 9.04628 31.3937C9.04628 31.9075 9.08974 32.4187 9.18687 32.9223C10.0049 37.1451 13.5298 40.095 17.837 40.1359C20.0379 40.1563 22.2362 40.1384 24.4371 40.141L24.4422 40.1436Z" fill="#517629"/>
<path d="M24.4244 37.4903C22.2235 37.4903 20.0252 37.4954 17.8243 37.4903C14.3939 37.4827 11.7815 34.86 11.7789 31.427C11.7763 27.0406 11.7763 22.6542 11.7789 18.2678C11.7789 14.8271 14.4194 12.1866 17.8626 12.184C22.2491 12.1789 26.6355 12.1789 31.0219 12.184C34.4396 12.1866 37.0852 14.8297 37.0878 18.2422C37.0903 22.6414 37.0903 27.0432 37.0878 31.4424C37.0878 34.8523 34.4677 37.4801 31.0654 37.4903C28.8517 37.498 26.6381 37.4903 24.4244 37.4903ZM16.49 24.8167C16.4823 29.244 20.0022 32.8023 24.4014 32.815C28.8108 32.8278 32.3665 29.2875 32.3716 24.8781C32.3793 20.4303 28.8901 16.9104 24.4602 16.8976C20.0252 16.8849 16.4976 20.3894 16.49 24.8167ZM30.9197 16.5244C30.9197 17.5418 31.6891 18.3214 32.7065 18.3265C33.7059 18.3342 34.5162 17.5418 34.5265 16.5423C34.5367 15.5301 33.7264 14.7172 32.7065 14.7198C31.6968 14.7198 30.9222 15.5045 30.9222 16.5219L30.9197 16.5244Z" fill="#517629"/>
<path d="M24.432 30.103C21.5538 30.103 19.1739 27.7207 19.1714 24.8373C19.1688 21.9513 21.5384 19.6073 24.4525 19.6099C27.3359 19.615 29.6952 21.9667 29.6927 24.8373C29.6901 27.7232 27.3103 30.103 24.432 30.103Z" fill="#517629"/>
</svg>
