<svg width="50" height="49" viewBox="0 0 50 49" fill="none" xmlns="http://www.w3.org/2000/svg">
<path d="M22.9579 0.42041C24.3383 0.42041 25.7161 0.42041 27.0964 0.42041C27.853 0.532883 28.6199 0.6019 29.3663 0.76294C39.0466 2.85646 45.3502 8.65902 48.2898 18.1272C48.7371 19.5689 48.9237 21.0668 49.1001 22.5622V26.5191C48.9825 27.3397 48.9186 28.173 48.7422 28.9833C46.6232 38.6099 40.8615 44.8982 31.4726 47.8404C30.0207 48.2954 28.51 48.4871 27.0018 48.6634H23.0525C21.9993 48.5229 20.9411 48.4053 19.9033 48.1727C7.11463 45.2969 -1.12653 33.0962 1.33764 20.2002C3.2011 10.456 9.18004 4.18057 18.6277 1.23328C20.0362 0.793614 21.5009 0.617237 22.9579 0.422966V0.42041ZM25.0131 34.1238C28.0499 34.1059 31.0866 34.0753 34.1131 33.7481C36.0456 33.5385 37.1013 32.5415 37.4158 30.6065C37.8273 28.0529 37.8529 25.4813 37.7634 22.9072C37.7148 21.5473 37.6305 20.1823 37.3288 18.8429C36.9889 17.3245 35.9715 16.4068 34.425 16.1742C32.8248 15.9365 31.2119 15.8598 29.604 15.8291C25.1409 15.7448 20.6778 15.6809 16.2223 16.0899C14.047 16.2893 12.9913 17.2223 12.6309 19.3669C12.2168 21.8388 12.2091 24.3362 12.2884 26.831C12.3344 28.2548 12.4085 29.6863 12.7383 31.0819C13.0757 32.5032 13.955 33.3774 15.4018 33.6611C16.1406 33.8069 16.8921 33.8733 17.6385 33.9142C20.0924 34.0471 22.5515 34.1545 25.0105 34.1213L25.0131 34.1238Z" fill="#517629"/>
<path d="M22.5541 25.3485C22.5541 24.1726 22.549 22.9968 22.5541 21.8209C22.5566 21.3199 22.6359 21.2739 23.0551 21.5372C24.9416 22.713 26.8229 23.8965 28.7094 25.0698C29.034 25.2718 29.057 25.4073 28.7145 25.6194C26.8255 26.7902 24.9467 27.9762 23.0602 29.1521C22.6359 29.4154 22.5566 29.3719 22.5541 28.8786C22.5464 27.7027 22.5541 26.5269 22.5541 25.351V25.3485Z" fill="#517629"/>
</svg>
