<?xml version="1.0" encoding="UTF-8"?>
<svg id="Layer_1" xmlns="http://www.w3.org/2000/svg" xmlns:xlink="http://www.w3.org/1999/xlink" viewBox="0 0 954.73 457.14">
  <defs>
    <style>
      .cls-1 {
        fill: url(#linear-gradient-2);
      }

      .cls-2 {
        fill: url(#linear-gradient);
      }

      .cls-3 {
        fill: #6b522c;
      }
    </style>
    <linearGradient id="linear-gradient" x1="0" y1="113.13" x2="372.36" y2="113.13" gradientUnits="userSpaceOnUse">
      <stop offset="0" stop-color="#91bc54"/>
      <stop offset="1" stop-color="#3d6a3a"/>
    </linearGradient>
    <linearGradient id="linear-gradient-2" x1="323.6" y1="367.04" x2="954.73" y2="367.04" xlink:href="#linear-gradient"/>
  </defs>
  <path class="cls-3" d="M143.78,229.63c-.12-4.78,3.07-5.44,6.49-5.74,2.17-.19,4.65,0,5.47-2.56.91-2.83-1.92-3.54-3.46-4.83-3.7-3.1-7.64-4.42-12.4-1.93-3.7,1.93-6.85-1-10.32-1.66.19-.59.29-.9.39-1.2,7.56,2.6,16.01-5.33,22.96,2.27,1.67-1.59-.91-3.46.93-4.7,1.62-.11,2.46,1.08,2.82,2.31,1.45,4.89,5.01,5.56,9.4,5.24,3.65-.27,7.33-.04,10.99-.16,2-.07,4.78.88,5.07-2.43.25-2.84-1.43-5.43-4.04-5.49-5.67-.13-10.9-3.16-16.64-2.24-1.9.3-3.58-.03-5.52-1.11,1.49-2.29,6.72-1.8,3.95-6.54,2.86.16,3.89,2.12,5.43,3.18,3.34,2.29,7.02,2.83,10.94,2.69,8.49-.32,12.14,3.97,11.15,12.65-.62,5.5,1.33,10.08,5.88,13.36,2.29,1.65,3.72,1.72,5.13-1.59,1.64-3.87,1.43-8.56,5.23-11.62,1.85-1.49-.07-2.4-1.41-2.34-6.46.27-6.63-5.44-8.89-9.14-.37-.6-.32-1.44.41-1.65.53-.16,1.33.08,1.83.41,1.5,1.02,1.83,2.68,2.13,4.35.43,2.39,2.24,3.21,4.35,3.39,2.11.18,2.83-1.27,3.2-3.08.44-2.12,1.67-4.44,3.89-3.45,3.14,1.4,8.08-3.88,9.58,2.61.47,2.05,2.71,2.33,3.78,4.29-2.56,1.03-4.78.58-5.94-1.64-1.8-3.47-4.9-2.93-7.33-2.18-2.44.75-1.14,3.38-.82,5.29.26,1.51.56,3.33-.62,4.29-3.73,3.02-3.55,7.73-5.38,11.55-1.53,3.21-.84,5.62,3.43,5.5,1.95-.06,3.8.46,4.79,2.16,2.37,4.07,5.67,5.23,10.14,4.04,1.07-.29,3.06-.84,3.36.94.29,1.7-1.55,1.95-2.83,2.09-4.6.49-9.06.44-12.07-4.01-.72-1.07-1.48-2.47-3.1-2.02-1.62.45-1.71,2.04-1.54,3.32,2.41,18.81-8.24,32.69-17.74,46.95-8.78,13.17-17.99,26.04-26.59,39.32-7.14,11.03-11.37,23.05-8.57,36.47,3.01,14.44,11.95,23.89,25.59,28.92,13.16,4.85,25.18,2.7,35.83-6.6,10.35-9.04,12.98-26.9,5.83-40.05-5.76-10.6-20.16-16.59-31.83-13.07-9.02,2.72-14.91,8.88-17.18,17.9-2.01,8.01,1,14.73,7.18,20.06,8.7,7.5,21.74,4.29,26.04-6.38,1.97-4.9.62-9.17-2.57-12.99-3.13-3.76-7.34-4.47-11.82-3.4-6.94,1.65-9.2,8.68-4.81,14.4.74.96,2.27,1.57,1.56,3.78-4.51-1.64-6.3-5.15-6.89-9.34-.6-4.28,3.25-10.23,7.49-12.03,6.11-2.61,11.9-1.62,16.92,2.41,4.87,3.91,7.07,9.46,6.17,15.57-1.34,9.11-6.2,15.89-15.53,18.2-9.46,2.34-18.33,1.25-25-6.82-7.96-9.62-10.66-20.47-5.36-32.11,5.72-12.56,16.13-19.25,29.74-20.59,23.86-2.35,38.91,16.53,42.54,35.94,5.89,31.52-22.96,58.52-55.82,51.57-25.7-5.44-42.16-23.38-45.05-49.42-1.73-15.65,4.72-29.1,13.7-41.25,8.8-11.91,18.36-23.26,27.52-34.92,6.9-8.78,13.77-17.61,18.41-27.86,4.41-9.73,3.87-12.34-3.68-19.8-2.15-2.12-4.12-4.3-5.3-7.17-3.02-7.35-9.47-10.71-17.24-8.87-4.2,1-9.1.21-12.13,4.61-.5.73-2.24,1.14-3.22.92-3.67-.83-6.5.3-9.01,3.08Z"/>
  <path class="cls-3" d="M278.17,354.73c.41-26.97-12.04-47.14-30.1-64.75-1.75-1.7-6.26-3.35-3.7-6.27,1.81-2.07,4.55,1.53,6.47,3.08,20.05,16.17,31.48,37,33.92,62.76,2.69,28.37-6.4,53.38-24.38,74.37-19.08,22.28-44.28,33.82-74.15,33.2-34.61-.72-62.01-15.63-81.34-44.11-10.76-15.85-16.37-34.22-16.17-53.36.27-25.01,8.8-47.23,27.01-65.21,4.29-4.23,8.32-8.65,13.89-11.21,1.16-.53,2.61-1.67,3.66-.49,1.22,1.37-.53,2.31-1.24,3.31-4.76,6.67-11.7,11.21-16.66,17.85-16.35,21.87-21.47,45.87-16.56,72.62,8.79,47.86,53.71,75.83,94.53,73.06,36.38-2.47,73.89-26.97,82.72-73.74,1.36-7.21,2.57-14.44,2.1-21.12Z"/>
  <path class="cls-2" d="M285.6,47.98c-.07,38.97-23.96,74.09-59.01,87.6-5.47,2.11-6.08,1.75-7.06-4.13-6.89-41.38,19.05-86.09,58.34-100.55,5.26-1.94,6.01-1.53,6.66,4,.54,4.62,1.39,9.23,1.06,13.08ZM181.99,120.25c2.5,3.12,4.01,3.35,6.75.11,27.47-32.44,27.51-85.37.08-117.86-2.57-3.04-3.98-3.56-6.73-.13-13.87,17.33-20.39,37.16-20.91,59.58.61,21.41,7.06,41.11,20.8,58.3ZM271.63,168.01c1.98-.09,3.96-.46,5.92-.83,34.78-6.51,58.97-26.09,72.62-58.76,1.56-3.73.87-5.37-3.4-5.89-10.14-1.24-20.29-1.64-30.3.32-34.49,6.73-58.52,26.35-71.8,59.01-1.39,3.41-.54,4.82,3.07,5.36,4.96.74,9.91,1.09,14.91.83,2.99,0,5.99.1,8.98-.04ZM369.77,205.87c3.03-2.4,3.73-4.02.35-6.86-32.84-27.61-85.62-27.62-118.35.03-2.86,2.42-3.21,3.89.02,6.44,17.39,13.68,37.01,20.78,59.15,20.79,22.22-.05,41.85-6.92,58.82-20.4ZM76.62,225.07c16.28-2.68,30.86-9.15,43.72-19.47,2.27-1.82,3.95-3.45.59-6.19-17.92-14.6-38.58-21.55-61.45-21.2-20.54.31-39.09,7.2-55.53,19.65-5.17,3.92-5.3,4.74-.2,8.65,16.94,12.99,36.06,19.66,57.44,19.64,5.19.13,10.31-.24,15.42-1.08ZM27.38,102.41c-6.57,1.17-6.88,1.71-4.18,8.07,17.09,40.14,56.57,62.56,100.04,56.78,6.1-.81,6.26-1.08,4.03-6.77-13.86-35.37-48.47-58.74-87.59-58.7-3.66.11-8-.14-12.3.62ZM145.39,135.42c5.92,2.38,6.47,2.12,7.33-3.94,2.96-20.8-.44-40.55-10.74-58.83-10.99-19.52-27.01-33.55-47.93-41.87-3.79-1.51-5.42-.56-6.03,3.55-.72,4.81-.79,9.61-.8,14.44-.98,35.67,21.95,72.11,58.17,86.66ZM215.9,189.72c-1.92,2.12-2.12,3.38.71,4.86,12.26,6.36,31.18,2.55,39.8-8.02,2.03-2.48,1.32-3.75-1.23-4.84-4.48-1.91-9.08-3.27-12.04-3.07-11.98.15-20.46,3.58-27.25,11.07ZM131.59,153c2.08,12.93,17.3,26.15,30.05,26.04,2.62-.02,3.51-.94,3.19-3.64-1.5-12.59-16.19-26.12-29.36-26.57-2.68-.26-4.46.51-3.87,4.17ZM116.34,181.6c-2.66,1.1-2.97,2.57-1.08,4.93,8.31,10.42,27.53,14.39,39.21,8.1,2.9-1.56,3.02-3.04.88-5.31-6.79-7.18-15.22-10.37-24.93-10.57-4.92-.14-9.58.98-14.07,2.85ZM190.38,162.44c.08.99.36,1.96.6,2.93,1.29,5.12,2.47,5.55,6.68,2.47,10.3-7.55,15.39-23.28,11.62-35.88-1.32-4.42-2.4-4.84-6.22-1.86-8.72,6.79-12.94,15.82-12.97,26.37.1,2.32.13,4.16.29,5.98ZM206.72,175.24c-.48,3.6,1.43,3.89,4.08,3.73,13.05-.82,26.34-12.69,29.09-25.77.73-3.44-.4-4.71-3.52-4.42-12.92.2-27.97,13.83-29.65,26.46ZM174.25,168.16c2.53,2.06,4.52,2.47,5.88-1.44,4.22-12.09-1.18-29.43-11.63-36.72-3.85-2.69-4.92-2.34-6.33,2.02-.93,2.9-1.02,5.88-1,8.89-.22,11.28,4.45,20.22,13.08,27.25Z"/>
  <path class="cls-1" d="M382.17,335.26h10.05l-14.55,51.57h-9.22l-10.32-36.18h-.4l-10.35,36.18h-9.21l-14.55-51.57h10.05l9.29,37.89h.48l9.92-37.89h9.14l9.95,37.92h.45l9.29-37.92ZM431.19,358.41c.94,2.46,1.41,5.38,1.41,8.77v2.79h-26.93c.03,2.15.43,4.01,1.22,5.55.82,1.6,1.97,2.83,3.45,3.68,1.48.85,3.21,1.27,5.19,1.27,1.33,0,2.53-.19,3.6-.57,1.07-.38,2.01-.94,2.79-1.67s1.38-1.65,1.79-2.74l8.51.96c-.54,2.25-1.56,4.21-3.06,5.88-1.5,1.67-3.42,2.96-5.75,3.88-2.33.91-5,1.37-8.01,1.37-3.88,0-7.22-.81-10.03-2.43-2.81-1.62-4.97-3.92-6.48-6.9s-2.27-6.49-2.27-10.54.76-7.47,2.28-10.49c1.52-3.01,3.65-5.36,6.38-7.05,2.74-1.69,5.95-2.53,9.64-2.53,2.38,0,4.64.38,6.76,1.15s4,1.94,5.64,3.54,2.92,3.62,3.86,6.08ZM423.87,363.83c-.02-1.75-.39-3.3-1.13-4.67-.74-1.37-1.77-2.45-3.08-3.24-1.32-.79-2.85-1.18-4.6-1.18-1.86,0-3.5.45-4.91,1.35-1.41.9-2.51,2.07-3.29,3.52-.7,1.29-1.07,2.7-1.16,4.22h18.17ZM440.31,386.82h9.11v-51.57h-9.11v51.57ZM458.79,386.82h9.11v-51.57h-9.11v51.57ZM504.95,349.36c-1.99-1.14-4.32-1.71-6.99-1.71-2.89,0-5.31.64-7.26,1.91-1.96,1.28-3.38,3-4.27,5.16h-.45v-6.57h-8.71v38.67h9.11v-22.66c0-1.86.35-3.45,1.04-4.76.7-1.31,1.66-2.31,2.9-3.01,1.23-.7,2.65-1.04,4.24-1.04,2.35,0,4.19.73,5.53,2.19,1.33,1.46,2,3.48,2,6.07v23.21h9.12v-24.62c.02-3.09-.53-5.72-1.62-7.88-1.1-2.17-2.64-3.82-4.63-4.96ZM553.41,358.41c.94,2.46,1.41,5.38,1.41,8.77v2.79h-26.93c.03,2.15.43,4.01,1.22,5.55.82,1.6,1.97,2.83,3.45,3.68,1.48.85,3.21,1.27,5.19,1.27,1.33,0,2.53-.19,3.6-.57,1.07-.38,2.01-.94,2.79-1.67s1.38-1.65,1.79-2.74l8.51.96c-.54,2.25-1.56,4.21-3.06,5.88-1.5,1.67-3.42,2.96-5.75,3.88-2.33.91-5,1.37-8.01,1.37-3.88,0-7.22-.81-10.03-2.43-2.81-1.62-4.97-3.92-6.48-6.9s-2.27-6.49-2.27-10.54.76-7.47,2.28-10.49c1.52-3.01,3.65-5.36,6.38-7.05,2.74-1.69,5.95-2.53,9.64-2.53,2.38,0,4.64.38,6.76,1.15s4,1.94,5.64,3.54,2.92,3.62,3.86,6.08ZM546.08,363.83c-.02-1.75-.39-3.3-1.13-4.67-.74-1.37-1.77-2.45-3.08-3.24-1.32-.79-2.85-1.18-4.6-1.18-1.86,0-3.5.45-4.91,1.35-1.41.9-2.51,2.07-3.29,3.52-.7,1.29-1.07,2.7-1.16,4.22h18.17ZM583.05,364.77l-6.6-1.41c-1.96-.45-3.37-1.03-4.22-1.74s-1.26-1.62-1.25-2.74c-.02-1.31.62-2.38,1.9-3.2,1.28-.82,2.88-1.23,4.77-1.23,1.41,0,2.6.23,3.58.68.97.45,1.75,1.05,2.33,1.79.58.74.99,1.53,1.22,2.37l8.31-.91c-.62-3.29-2.24-5.9-4.85-7.83s-6.18-2.9-10.71-2.9c-3.09,0-5.81.48-8.17,1.45s-4.2,2.32-5.51,4.08c-1.32,1.75-1.97,3.82-1.95,6.21-.02,2.82.86,5.15,2.64,6.99,1.78,1.84,4.52,3.14,8.23,3.92l6.6,1.38c1.78.39,3.09.94,3.94,1.66.85.72,1.27,1.64,1.27,2.74,0,1.31-.66,2.41-1.98,3.3-1.32.89-3.06,1.33-5.22,1.33s-3.8-.44-5.11-1.33c-1.31-.89-2.17-2.21-2.57-3.95l-8.89.86c.55,3.56,2.27,6.33,5.16,8.32,2.89,1.99,6.7,2.98,11.43,2.98,3.22,0,6.08-.52,8.56-1.56s4.43-2.49,5.83-4.34c1.4-1.85,2.11-4,2.13-6.43-.02-2.77-.92-5.01-2.71-6.72-1.79-1.71-4.51-2.96-8.17-3.75ZM621.97,364.77l-6.6-1.41c-1.96-.45-3.37-1.03-4.22-1.74s-1.26-1.62-1.25-2.74c-.02-1.31.62-2.38,1.9-3.2,1.28-.82,2.88-1.23,4.77-1.23,1.41,0,2.6.23,3.58.68.97.45,1.75,1.05,2.33,1.79.58.74.99,1.53,1.22,2.37l8.31-.91c-.62-3.29-2.24-5.9-4.85-7.83s-6.18-2.9-10.71-2.9c-3.09,0-5.81.48-8.17,1.45s-4.2,2.32-5.51,4.08c-1.32,1.75-1.97,3.82-1.95,6.21-.02,2.82.86,5.15,2.64,6.99,1.78,1.84,4.52,3.14,8.23,3.92l6.6,1.38c1.78.39,3.09.94,3.94,1.66.85.72,1.27,1.64,1.27,2.74,0,1.31-.66,2.41-1.98,3.3-1.32.89-3.06,1.33-5.22,1.33s-3.8-.44-5.11-1.33c-1.31-.89-2.17-2.21-2.57-3.95l-8.89.86c.55,3.56,2.27,6.33,5.16,8.32,2.89,1.99,6.7,2.98,11.43,2.98,3.22,0,6.08-.52,8.56-1.56s4.43-2.49,5.83-4.34c1.4-1.85,2.11-4,2.13-6.43-.02-2.77-.92-5.01-2.71-6.72-1.79-1.71-4.51-2.96-8.17-3.75ZM685.66,349.36c-1.99-1.14-4.32-1.71-6.99-1.71-2.89,0-5.31.64-7.26,1.91-1.96,1.28-3.38,3-4.27,5.16h-.45v-6.57h-8.71v38.67h9.11v-22.66c0-1.86.35-3.45,1.04-4.76.7-1.31,1.66-2.31,2.9-3.01,1.23-.7,2.65-1.04,4.24-1.04,2.35,0,4.19.73,5.53,2.19,1.33,1.46,2,3.48,2,6.07v23.21h9.12v-24.62c.02-3.09-.53-5.72-1.62-7.88-1.1-2.17-2.64-3.82-4.63-4.96ZM740.06,375.84h-.53l-13.42-40.59h-10.25l18.15,51.57h11.53l18.18-51.57h-10.27l-13.39,40.59ZM774.7,332.76c-1.44,0-2.69.48-3.73,1.45s-1.56,2.13-1.56,3.49.52,2.53,1.56,3.5c1.04.97,2.28,1.46,3.73,1.46s2.71-.48,3.74-1.45c1.03-.96,1.55-2.13,1.55-3.49s-.52-2.53-1.55-3.5-2.28-1.46-3.74-1.46ZM770.12,386.82h9.11v-38.67h-9.11v38.67ZM805.99,379.55c-.48.08-1,.13-1.57.13-.76,0-1.44-.12-2.07-.35-.62-.23-1.12-.68-1.5-1.32-.38-.65-.57-1.58-.57-2.81v-19.99h7.63v-7.05h-7.63v-9.27h-9.11v9.27h-5.49v7.05h5.49v21.5c-.02,2.42.51,4.43,1.57,6.04,1.07,1.61,2.51,2.8,4.34,3.56,1.83.76,3.89,1.11,6.17,1.04,1.29-.03,2.39-.15,3.29-.35.9-.2,1.59-.39,2.08-.55l-1.54-7.13c-.25.07-.62.14-1.1.23ZM845.7,354.52c.93,1.71,1.4,3.85,1.4,6.42v25.88h-8.76v-5.31h-.3c-.55,1.07-1.33,2.08-2.33,3.01s-2.25,1.68-3.75,2.24c-1.5.56-3.26.84-5.27.84-2.45,0-4.65-.44-6.61-1.32-1.96-.88-3.5-2.19-4.63-3.92-1.13-1.73-1.7-3.86-1.7-6.4,0-2.18.4-3.99,1.21-5.41s1.91-2.57,3.3-3.42c1.39-.86,2.97-1.51,4.72-1.95,1.75-.44,3.57-.77,5.45-.97,2.27-.23,4.1-.45,5.51-.64,1.41-.19,2.44-.49,3.08-.91.65-.41.97-1.05.97-1.93v-.15c0-1.9-.56-3.37-1.69-4.41-1.12-1.04-2.74-1.56-4.86-1.56-2.23,0-4,.49-5.3,1.46-1.3.97-2.18,2.12-2.63,3.45l-8.51-1.21c.67-2.35,1.78-4.32,3.32-5.9,1.54-1.59,3.43-2.78,5.67-3.58s4.7-1.2,7.4-1.2c1.86,0,3.72.22,5.56.65,1.85.44,3.53,1.15,5.06,2.15,1.53,1,2.76,2.35,3.69,4.07ZM838,368.39c-.29.24-.77.45-1.45.65-.68.2-1.44.38-2.28.53-.84.15-1.67.29-2.49.4-.82.12-1.54.22-2.14.3-1.36.18-2.58.49-3.65.91-1.07.42-1.92,1-2.54,1.75-.62.75-.93,1.71-.93,2.88,0,1.68.61,2.95,1.84,3.8,1.22.86,2.79,1.28,4.68,1.28s3.42-.37,4.76-1.1c1.34-.73,2.38-1.7,3.11-2.91.73-1.21,1.09-2.53,1.09-3.95v-4.56ZM856.28,386.82h9.11v-51.57h-9.11v51.57ZM879.35,332.76c-1.44,0-2.69.48-3.73,1.45s-1.56,2.13-1.56,3.49.52,2.53,1.56,3.5c1.04.97,2.28,1.46,3.73,1.46s2.71-.48,3.74-1.45c1.03-.96,1.55-2.13,1.55-3.49s-.52-2.53-1.55-3.5-2.28-1.46-3.74-1.46ZM874.77,386.82h9.11v-38.67h-9.11v38.67ZM910.63,379.55c-.48.08-1,.13-1.57.13-.76,0-1.44-.12-2.07-.35-.62-.23-1.12-.68-1.5-1.32-.38-.65-.57-1.58-.57-2.81v-19.99h7.63v-7.05h-7.63v-9.27h-9.11v9.27h-5.49v7.05h5.49v21.5c-.02,2.42.51,4.43,1.57,6.04,1.07,1.61,2.51,2.8,4.34,3.56,1.83.76,3.89,1.11,6.17,1.04,1.29-.03,2.39-.15,3.29-.35.9-.2,1.59-.39,2.08-.55l-1.54-7.13c-.25.07-.62.14-1.1.23ZM945.04,348.15l-8.94,29.21h-.4l-8.91-29.21h-9.67l14.02,39.48-.78,2.09c-.55,1.46-1.23,2.51-2.03,3.13-.8.63-1.72.95-2.76.97s-2.22-.17-3.55-.55l-2.12,7.1c.62.25,1.46.47,2.51.67,1.05.19,2.19.29,3.44.29,2.38,0,4.44-.39,6.16-1.17,1.72-.78,3.18-1.91,4.37-3.37,1.19-1.47,2.15-3.23,2.87-5.28l15.48-43.36h-9.69Z"/>
</svg>