<svg width="860" height="956" viewBox="0 0 860 956" fill="none" xmlns="http://www.w3.org/2000/svg">
<path d="M525.555 514.368L525.555 514.373C527.165 570.054 514.008 622.15 482.21 671.024L482.21 671.025C443.19 731.039 388.092 771.203 317.897 794.094C313.461 795.54 310.253 796.444 307.874 796.798C305.468 797.155 304.533 796.849 304.107 796.571C303.658 796.278 303.014 795.522 302.515 793.263C302.025 791.042 301.789 787.927 301.635 783.597L301.635 783.594C299.386 722.559 317.649 666.435 352.956 616.423C394.773 562.728 446.769 525.874 512.171 505.91C518.657 503.932 521.513 504.269 522.862 505.17C523.518 505.608 524.164 506.395 524.667 507.909C525.179 509.448 525.479 511.555 525.555 514.368Z" stroke="#612D17" stroke-opacity="0.05" stroke-width="6"/>
<path d="M569.837 494.975L569.842 494.976C628.923 508.318 678.635 533.353 717.956 573.464L717.957 573.465C766.247 622.695 787.724 680.462 785.397 746.67C785.249 750.852 784.994 753.839 784.471 755.975C783.948 758.108 783.262 758.935 782.662 759.321C782.045 759.719 780.897 760.053 778.366 759.885C775.847 759.718 772.488 759.096 767.885 758.084L767.881 758.083C702.952 743.877 650.934 713.409 611.734 669.995C571.111 620.029 551.947 565.782 555.548 504.463C555.903 498.461 557.3 495.964 558.947 494.923C560.617 493.868 563.685 493.575 569.837 494.975Z" stroke="#612D17" stroke-opacity="0.05" stroke-width="6"/>
<path d="M480.021 455.544L480.016 455.547C426.672 486.649 370.387 504.15 309.138 505.146L309.137 505.146C233.937 506.388 171.071 484.239 118.465 440.899C115.141 438.159 112.872 436.101 111.499 434.405C110.095 432.671 110.043 431.816 110.109 431.447C110.179 431.047 110.566 430.171 112.565 428.548C114.509 426.97 117.433 425.113 121.57 422.67L121.573 422.669C179.844 388.188 242.257 372.574 306.13 373.752C376.395 378.112 434.702 399.572 482.394 440.687C484.669 442.649 486.126 444.286 486.949 445.668C487.757 447.026 487.847 447.953 487.724 448.611C487.599 449.279 487.16 450.171 485.909 451.379C484.641 452.605 482.724 453.974 480.021 455.544Z" stroke="#612D17" stroke-opacity="0.05" stroke-width="6"/>
<path d="M503.117 392.035L503.112 392.033C451.588 363.93 412.573 326.818 388.065 277.664L388.065 277.663C357.958 217.329 355.774 155.5 378.678 91.486C380.125 87.4436 381.3 84.5934 382.462 82.6425C383.619 80.6988 384.536 80.041 385.266 79.803C386.013 79.5591 387.226 79.5384 389.553 80.3463C391.876 81.1528 394.848 82.6166 398.871 84.7795L398.874 84.7812C455.637 115.218 495.126 158.218 518.488 210.56C541.141 269.661 542.243 327.469 519.668 386.384C517.465 392.131 515.362 394.249 513.427 394.862C511.469 395.483 508.459 394.961 503.117 392.035Z" stroke="#612D17" stroke-opacity="0.05" stroke-width="6"/>
<path d="M385.138 346.237L385.133 346.237C354.739 346.338 327.393 339.93 303.081 325.329L303.08 325.329C273.212 307.404 255.197 282.597 247.57 251.211C247.084 249.209 246.84 247.872 246.814 246.942C246.803 246.521 246.841 246.284 246.87 246.167C247.004 246.114 247.291 246.025 247.837 245.94C248.941 245.768 250.542 245.696 252.933 245.675L252.937 245.675C286.22 245.35 315.398 254.047 340.11 270.217C366.394 289.344 382.808 312.757 389.162 341.939C389.788 344.817 389.26 345.517 389.171 345.607C389.059 345.72 388.342 346.231 385.138 346.237ZM246.903 246.07C246.903 246.071 246.902 246.074 246.899 246.079C246.901 246.073 246.903 246.07 246.903 246.07Z" stroke="#612D17" stroke-opacity="0.05" stroke-width="6"/>
<path d="M361.016 544.45L361.014 544.455C353.959 571.554 340.499 595.205 318.76 615.178L318.759 615.178C292.063 639.719 260.649 652.809 224.568 655.838C222.265 656.031 220.745 656.088 219.726 655.999C219.485 655.978 219.306 655.952 219.177 655.927C219.17 655.788 219.169 655.59 219.189 655.317C219.261 654.315 219.56 652.876 220.102 650.742L220.103 650.739C227.598 621.024 243.998 596.009 267.552 575.871C294.705 554.686 324.207 542.854 357.587 540.694C359.128 540.595 360.142 540.658 360.783 540.794C361.151 540.872 361.314 540.955 361.37 540.991C361.397 541.049 361.455 541.22 361.466 541.591C361.484 542.207 361.364 543.122 361.016 544.45ZM218.889 655.849C218.889 655.849 218.891 655.85 218.894 655.851C218.891 655.85 218.889 655.849 218.889 655.849ZM361.395 541.01C361.395 541.01 361.391 541.007 361.384 541C361.393 541.007 361.396 541.01 361.395 541.01ZM361.363 540.976C361.359 540.97 361.357 540.967 361.357 540.967C361.357 540.966 361.359 540.969 361.363 540.976Z" stroke="#612D17" stroke-opacity="0.05" stroke-width="6"/>
<path d="M549.891 636.062C546.037 631.583 543.271 631.359 539.035 636.269C517.488 661.255 507.105 689.38 506.473 721.4L549.891 636.062ZM549.891 636.062C568.414 657.503 579.516 681.437 581.611 708.993L549.891 636.062ZM509.474 721.32C510.107 690.019 520.24 662.611 541.288 638.204C543.332 635.835 544.281 635.645 544.542 635.646C544.83 635.646 545.723 635.863 547.602 638.046L547.605 638.05C565.783 659.092 576.58 682.449 578.621 709.28L578.621 709.281C581.137 742.234 570.78 771.702 548.609 798.508L509.474 721.32ZM509.474 721.32C510.419 749.501 520.361 775.691 540.443 798.58L540.445 798.582C541.885 800.228 542.899 801.29 543.703 801.939C544.23 802.366 544.509 802.482 544.603 802.512C544.697 802.478 544.954 802.357 545.427 801.957C546.205 801.301 547.195 800.217 548.609 798.508L509.474 721.32ZM544.562 802.523C544.562 802.523 544.566 802.522 544.574 802.521C544.566 802.523 544.561 802.524 544.562 802.523ZM544.634 802.52C544.639 802.52 544.641 802.521 544.641 802.521C544.641 802.521 544.639 802.521 544.634 802.52Z" stroke="#612D17" stroke-opacity="0.05" stroke-width="6"/>
</svg>
