<svg width="148" height="367" viewBox="0 0 148 367" fill="none" xmlns="http://www.w3.org/2000/svg">
<path d="M47.7078 356.736L47.705 356.731C17.4005 309.64 1.66279 258.248 3.63022 200.3L3.63025 200.299C6.02448 129.156 32.5536 67.0365 81.0452 12.2122C84.1099 8.7483 86.3994 6.36481 88.2622 4.87026C90.1431 3.36116 91.1157 3.14673 91.6461 3.17397C92.202 3.20252 93.1561 3.53959 94.7556 5.23027C96.3306 6.895 98.151 9.45619 100.533 13.1039L100.534 13.1068C134.169 64.4815 147.606 121.895 143.212 182.577C135.131 249.686 109.549 307.407 63.6613 357.313C59.1165 362.254 56.4762 363.408 54.823 363.307C53.1316 363.203 50.8951 361.709 47.7078 356.736Z" stroke="#612D17" stroke-opacity="0.05" stroke-width="6"/>
</svg>
