<svg width="49" height="66" viewBox="0 0 49 66" fill="none" xmlns="http://www.w3.org/2000/svg">
<path d="M46.0736 41.6461C46.0736 54.6205 37.7535 62.7881 24.5368 62.7881C11.3201 62.7881 3 54.6205 3 41.6461C3 27.7232 18.4392 8.92739 23.1743 3.49067C23.3428 3.29751 23.5519 3.14244 23.7872 3.03613C24.0225 2.92981 24.2785 2.87476 24.5376 2.87476C24.7966 2.87476 25.0526 2.92981 25.2879 3.03613C25.5232 3.14244 25.7323 3.29751 25.9008 3.49067C30.6344 8.92739 46.0736 27.7232 46.0736 41.6461Z" stroke="#517629" stroke-width="5.26798" stroke-miterlimit="10"/>
<path d="M37.6981 42.8206C37.6981 45.6242 36.5636 48.3129 34.5441 50.2954C32.5246 52.2778 29.7856 53.3915 26.9297 53.3915" stroke="#517629" stroke-width="5.26798" stroke-linecap="round" stroke-linejoin="round"/>
</svg>
