<svg width="65" height="73" viewBox="0 0 65 73" fill="none" xmlns="http://www.w3.org/2000/svg">
<path d="M46.9654 16.8992C42.0406 16.4661 37.1953 19.297 32.3102 19.297C27.4252 19.297 22.5783 16.4496 17.6551 16.8992C7.88504 17.7984 3 26.4902 3 40.8766C3 52.8654 12.7701 69.6496 19.9755 69.6496C27.181 69.6496 27.9045 66.0529 32.3102 66.0529C36.7159 66.0529 37.438 69.6496 44.645 69.6496C51.8519 69.6496 61.6205 52.8654 61.6205 40.8766C61.6205 26.4902 57.1934 17.7984 46.9654 16.8992Z" stroke="#517629" stroke-width="4.88504" stroke-miterlimit="10"/>
<path d="M42.6788 10.1765C39.473 13.3236 35.7084 14.2227 33.6994 14.491C33.5158 14.517 33.3285 14.5015 33.1518 14.4458C32.9751 14.3901 32.8137 14.2956 32.6798 14.1695C32.5458 14.0434 32.443 13.889 32.3789 13.718C32.3149 13.547 32.2914 13.3639 32.3103 13.1827C32.6726 9.81171 34.2164 6.66892 36.6778 4.29157C40.0363 0.994672 43.7 0.260364 45.6418 0.117998C45.8231 0.101759 46.0058 0.125507 46.1765 0.187502C46.3472 0.249498 46.5017 0.348174 46.6286 0.476312C46.7554 0.604449 46.8515 0.758808 46.9098 0.928096C46.9681 1.09738 46.9871 1.27732 46.9654 1.45474C46.5821 4.75414 45.071 7.82863 42.6788 10.1765Z" fill="#517629"/>
<path d="M26.2041 50.4678C28.2275 50.4678 29.8678 47.2472 29.8678 43.2745C29.8678 39.3018 28.2275 36.0813 26.2041 36.0813C24.1806 36.0813 22.5403 39.3018 22.5403 43.2745C22.5403 47.2472 24.1806 50.4678 26.2041 50.4678Z" fill="#517629"/>
<path d="M38.4165 50.4678C40.4399 50.4678 42.0802 47.2472 42.0802 43.2745C42.0802 39.3018 40.4399 36.0813 38.4165 36.0813C36.393 36.0813 34.7527 39.3018 34.7527 43.2745C34.7527 47.2472 36.393 50.4678 38.4165 50.4678Z" fill="#517629"/>
</svg>
