<svg width="68" height="68" viewBox="0 0 68 68" fill="none" xmlns="http://www.w3.org/2000/svg">
<path d="M16.9054 19.5813C15.2337 19.5813 13.5995 19.0947 12.2095 18.1829C10.8194 17.2711 9.73605 15.9752 9.0963 14.459C8.45654 12.9429 8.28915 11.2745 8.6153 9.66491C8.94144 8.05533 9.74647 6.57684 10.9286 5.4164C12.1107 4.25596 13.6168 3.46569 15.2564 3.14552C16.8961 2.82536 18.5956 2.98968 20.1401 3.61771C21.6846 4.24573 23.0047 5.30926 23.9335 6.67379C24.8623 8.03832 25.358 9.64258 25.358 11.2837C25.358 13.4844 24.4675 15.5949 22.8823 17.151C21.2971 18.7071 19.1472 19.5813 16.9054 19.5813ZM16.9054 7.13489C16.0696 7.13489 15.2525 7.37821 14.5575 7.83409C13.8624 8.28997 13.3207 8.93792 13.0009 9.69601C12.681 10.4541 12.5973 11.2883 12.7604 12.0931C12.9234 12.8979 13.326 13.6371 13.917 14.2173C14.5081 14.7976 15.2611 15.1927 16.0809 15.3528C16.9008 15.5129 17.7505 15.4307 18.5228 15.1167C19.295 14.8027 19.9551 14.2709 20.4195 13.5886C20.8839 12.9064 21.1317 12.1042 21.1317 11.2837C21.1317 10.1834 20.6865 9.1281 19.8939 8.35005C19.1013 7.572 18.0263 7.13489 16.9054 7.13489Z" fill="#517629"/>
<path d="M50.7155 19.5813C49.0437 19.5813 47.4095 19.0947 46.0195 18.1829C44.6295 17.2711 43.5461 15.9752 42.9064 14.459C42.2666 12.9429 42.0992 11.2745 42.4254 9.66491C42.7515 8.05533 43.5565 6.57684 44.7386 5.4164C45.9208 4.25596 47.4269 3.46569 49.0665 3.14552C50.7061 2.82536 52.4057 2.98968 53.9502 3.61771C55.4947 4.24573 56.8148 5.30926 57.7436 6.67379C58.6723 8.03832 59.1681 9.64258 59.1681 11.2837C59.1681 13.4844 58.2775 15.5949 56.6924 17.151C55.1072 18.7071 52.9573 19.5813 50.7155 19.5813ZM50.7155 7.13489C49.8796 7.13489 49.0625 7.37821 48.3675 7.83409C47.6725 8.28997 47.1308 8.93792 46.8109 9.69601C46.4911 10.4541 46.4074 11.2883 46.5704 12.0931C46.7335 12.8979 47.136 13.6371 47.7271 14.2173C48.3181 14.7976 49.0712 15.1927 49.891 15.3528C50.7108 15.5129 51.5606 15.4307 52.3328 15.1167C53.1051 14.8027 53.7651 14.2709 54.2295 13.5886C54.6939 12.9064 54.9418 12.1042 54.9418 11.2837C54.9418 10.1834 54.4965 9.1281 53.7039 8.35005C52.9114 7.572 51.8364 7.13489 50.7155 7.13489Z" fill="#517629"/>
<path d="M54.9423 63.1435H46.4897C45.3689 63.1435 44.2939 62.7064 43.5013 61.9284C42.7087 61.1503 42.2635 60.0951 42.2635 58.9947V44.4739H46.4897V58.9947H54.9423V40.3251H59.1686V27.8787C59.1686 27.3286 58.946 26.8009 58.5497 26.4119C58.1534 26.0229 57.6159 25.8043 57.0554 25.8043H43.4891L33.8109 42.3995L24.1327 25.8043H10.5664C10.0059 25.8043 9.46843 26.0229 9.07213 26.4119C8.67584 26.8009 8.45321 27.3286 8.45321 27.8787V40.3251H12.6795V58.9947H21.1321V44.4739H25.3583V58.9947C25.3583 60.0951 24.9131 61.1503 24.1205 61.9284C23.3279 62.7064 22.2529 63.1435 21.1321 63.1435H12.6795C11.5586 63.1435 10.4836 62.7064 9.69106 61.9284C8.89848 61.1503 8.45321 60.0951 8.45321 58.9947V44.4739C7.33233 44.4739 6.25736 44.0368 5.46478 43.2588C4.6722 42.4807 4.22693 41.4255 4.22693 40.3251V27.8787C4.22693 26.2282 4.89483 24.6453 6.0837 23.4783C7.27257 22.3112 8.88503 21.6555 10.5664 21.6555H26.584L33.8109 34.1019L41.0378 21.6555H57.0554C58.7368 21.6555 60.3492 22.3112 61.5381 23.4783C62.727 24.6453 63.3949 26.2282 63.3949 27.8787V40.3251C63.3949 41.4255 62.9496 42.4807 62.157 43.2588C61.3644 44.0368 60.2895 44.4739 59.1686 44.4739V58.9947C59.1686 60.0951 58.7233 61.1503 57.9307 61.9284C57.1382 62.7064 56.0632 63.1435 54.9423 63.1435Z" fill="#517629"/>
</svg>
