<svg width="64" height="47" viewBox="0 0 64 47" fill="none" xmlns="http://www.w3.org/2000/svg">
<path d="M59.3657 22.5928V7.0997C59.3657 4.66507 57.3366 2.6731 54.8565 2.6731H9.76379C7.28369 2.6731 5.25452 4.66507 5.25452 7.0997V22.5928" stroke="#517629" stroke-width="4.50927" stroke-miterlimit="10"/>
<path d="M14.2731 22.5927V18.1661C14.2731 15.7315 16.3022 13.7395 18.7823 13.7395H27.8009C30.281 13.7395 32.3101 15.7315 32.3101 18.1661V22.5927" stroke="#517629" stroke-width="4.50927" stroke-miterlimit="10"/>
<path d="M32.3102 22.5927V18.1661C32.3102 15.7315 34.3394 13.7395 36.8194 13.7395H45.838C48.3181 13.7395 50.3473 15.7315 50.3473 18.1661V22.5927" stroke="#517629" stroke-width="4.50927" stroke-miterlimit="10"/>
<path d="M3.00012 27.0194V44.7258H9.76403V40.2992H54.8567V44.7258H61.6206V27.0194C61.6206 24.5847 59.5914 22.5928 57.1113 22.5928H7.50939C5.02929 22.5928 3.00012 24.5847 3.00012 27.0194Z" stroke="#517629" stroke-width="4.50927" stroke-miterlimit="10"/>
</svg>
