<?xml version="1.0" encoding="UTF-8"?> <svg xmlns="http://www.w3.org/2000/svg" viewBox="0 0 275.55 275.55"><defs><style>.cls-1{fill:#003e52;}.cls-2{fill:#fff;}</style></defs><g id="Layer_2" data-name="Layer 2"><g id="LAYER_1-2" data-name="LAYER 1"><path class="cls-1" d="M137.77,275.55C61.8,275.55,0,213.74,0,137.77S61.8,0,137.77,0,275.55,61.8,275.55,137.77,213.74,275.55,137.77,275.55Zm0-274.6C62.33,1,1,62.33,1,137.77S62.33,274.59,137.77,274.59,274.6,213.22,274.6,137.77,213.22,1,137.77,1Z"></path><path class="cls-1" d="M137.77,269.13C65.34,269.13,6.42,210.2,6.42,137.77A131.49,131.49,0,0,1,137.77,6.42c72.43,0,131.36,58.92,131.36,131.35S210.2,269.13,137.77,269.13Z"></path><g id="LEAVES_-_BOTTOM" data-name="LEAVES - BOTTOM"><path class="cls-2" d="M228.07,175.79h-.33l-.15-.22c-.16-.27-.32-.56-.47-.87l-.06-.1c-.07-.18-.13-.34-.18-.49a5.42,5.42,0,0,1,1.15-5.47,5.3,5.3,0,0,1,1.76-1.26,5.39,5.39,0,0,1,1.07-.36l.33,0,.17.22a5.67,5.67,0,0,1,.57,1,5.33,5.33,0,0,1,.47,2.12,5.41,5.41,0,0,1-2.78,4.85,4.13,4.13,0,0,1-.42.22l-.1.05c-.35.14-.66.25-1,.34Zm2.69-7.76a5.24,5.24,0,0,0-.58.22,4.43,4.43,0,0,0-1.45,1,4.49,4.49,0,0,0-.95,4.52c.05.13.09.26.15.38l0,.1.24.46.49-.19.1,0,.35-.19a4.49,4.49,0,0,0,2.3-4,4.41,4.41,0,0,0-.39-1.74A4.83,4.83,0,0,0,230.76,168Z"></path><path class="cls-2" d="M219.81,190.92l-.15-.34c-.11-.29-.22-.6-.32-.93l0-.11c0-.2-.07-.36-.09-.51a5.43,5.43,0,0,1,2.08-5.19,5.27,5.27,0,0,1,1.95-.94,5.53,5.53,0,0,1,1.12-.17h.21l.25.28a5.34,5.34,0,0,1,.38,1.06,5.14,5.14,0,0,1,.1,2.17,5.44,5.44,0,0,1-3.57,4.3l-.46.14-.11,0c-.37.08-.69.13-1,.17Zm4.29-7.21a4.83,4.83,0,0,0-.62.12,4.25,4.25,0,0,0-1.6.77,4.48,4.48,0,0,0-1.72,4.28c0,.15,0,.28.07.41s.13.42.19.59c.16,0,.33-.06.51-.1l.11,0a2.65,2.65,0,0,0,.37-.12,4.46,4.46,0,0,0,3-3.55,4.28,4.28,0,0,0-.08-1.78A5.26,5.26,0,0,0,224.1,183.71Z"></path><path class="cls-2" d="M215.06,213.14l-.24-.33c-.87-1.23-1.63-2.18-2.31-3a18.69,18.69,0,0,1-2.49-3.6,8.54,8.54,0,0,1-.92-3.17l0-.11h0l0-.29h0a1.55,1.55,0,0,1,0-.22,5.42,5.42,0,0,1,2.95-4.74,5.36,5.36,0,0,1,2.08-.59,5.45,5.45,0,0,1,5.78,4.54h.05l0,.58a8.81,8.81,0,0,1-.46,3.35,19.09,19.09,0,0,1-1.93,3.91c-.55.93-1.17,2-1.83,3.28l-.13.31Zm-5-10.29a7.87,7.87,0,0,0,.85,2.91,17.38,17.38,0,0,0,2.37,3.43c.59.73,1.24,1.53,1.95,2.51.57-1.08,1.09-2,1.56-2.76a18.32,18.32,0,0,0,1.84-3.73,7.54,7.54,0,0,0,.41-3h0v-.06c0-.17,0-.31,0-.44a4.51,4.51,0,0,0-3-3.53,4.45,4.45,0,0,0-3.5.26,4.48,4.48,0,0,0-2.44,3.92v.44Z"></path><path class="cls-2" d="M210.26,204.39a8.43,8.43,0,0,1-2.87-.47,18.12,18.12,0,0,1-3.91-1.93c-.93-.54-2-1.16-3.29-1.82l-.39-.21v-.56l.25-.14c1.28-.9,2.23-1.66,3.06-2.34a18.66,18.66,0,0,1,3.61-2.48,8.49,8.49,0,0,1,3.17-.93h.05l.33,0v0h.24a5.41,5.41,0,0,1,5.32,4.92l0,0v.12a5.57,5.57,0,0,1-.28,2.15,5.45,5.45,0,0,1-4.27,3.61l-.11,0v0h-.93Zm-9.06-4.78c1.07.57,2,1.09,2.76,1.56a17.89,17.89,0,0,0,3.73,1.85,7.91,7.91,0,0,0,2.94.41h.1l.41-.06a4.47,4.47,0,0,0,3.52-3,4.22,4.22,0,0,0,.24-1.65v-.17a4.25,4.25,0,0,0-.48-1.69,4.48,4.48,0,0,0-3.92-2.44H210a7.75,7.75,0,0,0-2.9.84,17.51,17.51,0,0,0-3.44,2.38C203,198.25,202.17,198.9,201.2,199.61Z"></path><path class="cls-2" d="M201.06,225.41h-.29l-.18-.43c-.61-1.29-1.2-2.36-1.72-3.3a18.08,18.08,0,0,1-1.82-4,8.64,8.64,0,0,1-.37-3.28v-.08h0l.05-.36,0-.18a5.45,5.45,0,0,1,5.89-4.38,5.55,5.55,0,0,1,2.09.65,5.42,5.42,0,0,1,2.81,4.83v0h.08l-.11.57a8.62,8.62,0,0,1-1,3.19,18.36,18.36,0,0,1-2.58,3.51c-.69.82-1.49,1.75-2.36,2.92l-.15.23Zm-3.43-11h0a7.91,7.91,0,0,0,.33,3,17.94,17.94,0,0,0,1.74,3.79c.45.81,1,1.72,1.49,2.81.75-1,1.41-1.76,2-2.46a17.72,17.72,0,0,0,2.46-3.35,7.49,7.49,0,0,0,.92-2.83v0a3.78,3.78,0,0,0,0-.45,4.48,4.48,0,0,0-2.32-4,4.29,4.29,0,0,0-1.71-.54,4.5,4.5,0,0,0-4.87,3.62,2.93,2.93,0,0,0-.07.41Z"></path><path class="cls-2" d="M198.59,216.12,198,216a8.73,8.73,0,0,1-3.2-1,18.48,18.48,0,0,1-3.51-2.58c-.82-.7-1.75-1.49-2.92-2.37l-.35-.28.1-.55.37-.13c1.3-.62,2.37-1.21,3.31-1.73a18.56,18.56,0,0,1,4-1.82,8.59,8.59,0,0,1,3.28-.36h.08l.37,0,.18,0a5.44,5.44,0,0,1,4.16,3.73,5.33,5.33,0,0,1,.22,2.14l0,.18a5.29,5.29,0,0,1-.62,1.92,5.36,5.36,0,0,1-4.84,2.82h0Zm0-1h.06a4.47,4.47,0,0,0,3.93-2.33,4.29,4.29,0,0,0,.53-1.69l0-.14a4.62,4.62,0,0,0-.19-1.67,4.5,4.5,0,0,0-3.44-3.08l-.41-.07h0a7.86,7.86,0,0,0-3,.33,17.45,17.45,0,0,0-3.79,1.74c-.81.45-1.72,1-2.81,1.48,1,.74,1.75,1.41,2.46,2a18,18,0,0,0,3.34,2.46,7.78,7.78,0,0,0,2.84.92h.09Z"></path><path class="cls-2" d="M184.9,235.07l-.28-.06-.12-.42c-.39-1.42-.78-2.58-1.13-3.59a18.09,18.09,0,0,1-1.1-4.24,8.42,8.42,0,0,1,.21-3.29l0-.07h0l.12-.5,0,0,0,0a5.4,5.4,0,0,1,6.55-3.28l.09,0a5.45,5.45,0,0,1,3.79,6.23v0h.06l-.19.54a8.77,8.77,0,0,1-1.57,3,18.62,18.62,0,0,1-3.15,3c-.83.69-1.77,1.46-2.84,2.46l-.18.17Zm-1.49-11.43a7.85,7.85,0,0,0-.2,3,17.82,17.82,0,0,0,1.06,4c.3.88.64,1.86,1,3,.9-.81,1.7-1.47,2.41-2.06a17.75,17.75,0,0,0,3-2.87,7.77,7.77,0,0,0,1.32-2.4l.1-.29c0-.17.07-.3.09-.43a4.49,4.49,0,0,0-1.59-4.34,4.31,4.31,0,0,0-1.59-.82l-.05,0a4.45,4.45,0,0,0-1.75-.12,4.5,4.5,0,0,0-3.63,2.85c-.05.13-.09.26-.13.39Z"></path><path class="cls-2" d="M185.12,225.53a5,5,0,0,1-1-.1l-.12,0,0,.05-.43-.16a8.77,8.77,0,0,1-3-1.57,18.62,18.62,0,0,1-3-3.15c-.69-.83-1.46-1.77-2.46-2.84l-.3-.31.18-.55.3,0c1.49-.41,2.64-.8,3.66-1.15a18.09,18.09,0,0,1,4.24-1.1,8.43,8.43,0,0,1,3.29.21h.06l.44.11v0l.11.05a5.44,5.44,0,0,1,3.45,4.39,5.32,5.32,0,0,1-.15,2.1l0,.15a5.2,5.2,0,0,1-1,1.86A5.41,5.41,0,0,1,185.12,225.53Zm-1.34-1.15.09,0,.4.08a4.49,4.49,0,0,0,4.34-1.59,4.24,4.24,0,0,0,.8-1.53l.05-.14a4.5,4.5,0,0,0-2.74-5.34,3,3,0,0,0-.39-.14l0,0a7.85,7.85,0,0,0-3-.2,17.82,17.82,0,0,0-4,1.06c-.88.3-1.86.64-3,1,.82.9,1.47,1.7,2.06,2.41a18.14,18.14,0,0,0,2.87,3,7.9,7.9,0,0,0,2.63,1.4Z"></path><path class="cls-2" d="M167.63,241.8l-.35,0-.27-.11,0-.42c-.14-1.48-.33-2.69-.49-3.75a18.27,18.27,0,0,1-.35-4.36,8.48,8.48,0,0,1,.78-3.21l0-.08h0l.14-.31h0l.1-.17a5.39,5.39,0,0,1,4.93-2.63,5.25,5.25,0,0,1,2,.51l.07,0a5.57,5.57,0,0,1,1.72,1.32,5.43,5.43,0,0,1,1,5.5l0,.08,0,0-.24.44a8.79,8.79,0,0,1-2.06,2.65,18.64,18.64,0,0,1-3.63,2.43c-.93.53-2,1.13-3.22,1.93Zm.18-11.55h0a7.82,7.82,0,0,0-.72,2.94,17.66,17.66,0,0,0,.34,4.15c.14.92.3,1.95.43,3.15,1-.65,1.92-1.16,2.73-1.61a17.62,17.62,0,0,0,3.46-2.31,7.65,7.65,0,0,0,1.84-2.34h0l0,0c.08-.17.13-.29.18-.42a4.48,4.48,0,0,0-2.2-5.61l-.06,0a4.56,4.56,0,0,0-1.73-.44,4.51,4.51,0,0,0-4.07,2.18c-.07.12-.14.24-.2.36Z"></path><path class="cls-2" d="M170.1,232.49a5.34,5.34,0,0,1-1.92-.35l-.16-.06,0,0-.36-.21a8.87,8.87,0,0,1-2.64-2.06,18.64,18.64,0,0,1-2.43-3.63c-.53-.93-1.13-2-1.93-3.22l-.25-.34.29-.54.31,0h.1c1.43-.13,2.63-.32,3.7-.48a18.19,18.19,0,0,1,4.36-.35,8.48,8.48,0,0,1,3.21.78l.39.17v0l.17.1a5.44,5.44,0,0,1,2.63,4.93,5.12,5.12,0,0,1-.49,2l-.09.18a5.08,5.08,0,0,1-1.28,1.67A5.43,5.43,0,0,1,170.1,232.49Zm-1.95-1.39a2.46,2.46,0,0,0,.36.14,4.49,4.49,0,0,0,4.55-.81,4.29,4.29,0,0,0,1-1.33l.07-.13a4.49,4.49,0,0,0-1.75-5.78l-.36-.2,0,0a7.86,7.86,0,0,0-2.94-.72,17.82,17.82,0,0,0-4.16.34c-.92.14-1.94.3-3.14.43.65,1,1.16,1.93,1.61,2.73a17.62,17.62,0,0,0,2.31,3.46,7.52,7.52,0,0,0,2.11,1.71l.29.16-.23.41Z"></path><path class="cls-2" d="M149.11,245.4l-.34-.1-.25-.15,0-.31.4-.07,0,0-.36,0c.12-1.46.14-2.68.16-3.75a18.5,18.5,0,0,1,.42-4.36,8.47,8.47,0,0,1,1.32-3l0-.05.4.27-.4-.27,0,0h0l.27-.41,0,0s0,0,0,0a5.43,5.43,0,0,1,7.28-.85l.08.06a5.28,5.28,0,0,1,1.41,1.55,5.44,5.44,0,0,1,0,5.59l0,.08,0,0-.31.38a8.61,8.61,0,0,1-2.49,2.25,17.7,17.7,0,0,1-4,1.76c-1,.36-2.17.77-3.51,1.34Zm2.19-11.35a7.93,7.93,0,0,0-1.23,2.77,17.75,17.75,0,0,0-.38,4.16c0,.93,0,2-.12,3.17,1.14-.47,2.1-.81,3-1.12a17.21,17.21,0,0,0,3.8-1.67,7.45,7.45,0,0,0,2.22-2h0l0,0a3.76,3.76,0,0,0,.24-.38,4.48,4.48,0,0,0,0-4.62,4.33,4.33,0,0,0-1.21-1.31l-.08-.07a4.51,4.51,0,0,0-5.95.76l-.27.32Z"></path><path class="cls-2" d="M154.11,236.74a5.44,5.44,0,0,1-2.78-.76l-.09,0,0,0-.37-.31a8.67,8.67,0,0,1-2.26-2.49,18.16,18.16,0,0,1-1.75-4c-.36-1-.77-2.17-1.34-3.51l-.17-.43.37-.42.28.06c1.54.13,2.75.16,3.83.18a18.52,18.52,0,0,1,4.36.41,8.55,8.55,0,0,1,3,1.32l.06,0h0l.42.29,0,0,0,0a5.44,5.44,0,0,1-3.57,9.55Zm-2.83-2,.18.15a2.5,2.5,0,0,0,.35.21,4.46,4.46,0,0,0,4.62,0,4.21,4.21,0,0,0,1.31-1.21,4.43,4.43,0,0,0,.75-1.64,4.52,4.52,0,0,0-1.44-4.39l-.32-.26,0,0a7.72,7.72,0,0,0-2.77-1.22,17.73,17.73,0,0,0-4.16-.39c-.93,0-2,0-3.17-.12.47,1.14.81,2.1,1.11,3a18,18,0,0,0,1.67,3.81A7.58,7.58,0,0,0,151.28,234.79Z"></path><path class="cls-2" d="M130.15,245.76l-.42-.37.09-.38c.39-1.47.62-2.66.83-3.72a18.11,18.11,0,0,1,1.16-4.22,8.59,8.59,0,0,1,1.83-2.75l0,0,.34.33-.34-.33,0,0h0L134,234l0,0,.12-.09a5.43,5.43,0,0,1,7.26.37l.12.14a5,5,0,0,1,1.12,1.76,5.42,5.42,0,0,1-1,5.51l0,.06,0,0-.37.34a8.8,8.8,0,0,1-2.85,1.8,18.42,18.42,0,0,1-4.24,1c-1.06.18-2.26.38-3.69.71l-.24-.42.15.45Zm4.22-10.83a7.82,7.82,0,0,0-1.68,2.52,17.59,17.59,0,0,0-1.11,4c-.18.92-.38,1.93-.67,3.11,1.22-.27,2.22-.44,3.12-.59a17.21,17.21,0,0,0,4-1,7.52,7.52,0,0,0,2.21-1.3l.37-.32a3.82,3.82,0,0,0,.29-.32,4.49,4.49,0,0,0,.79-4.56,4.42,4.42,0,0,0-.92-1.45l-.11-.1v0h0a4.52,4.52,0,0,0-6-.29l-.32.27Z"></path><path class="cls-2" d="M137.61,238.15a5.42,5.42,0,0,1-3.54-1.31l-.06-.05,0,.05-.33-.41a8.65,8.65,0,0,1-1.78-2.84,18.33,18.33,0,0,1-1-4.23c-.18-1.06-.38-2.27-.72-3.69l-.09-.43.43-.37.37.14c1.4.36,2.59.6,3.65.8a18.61,18.61,0,0,1,4.22,1.17,8.53,8.53,0,0,1,2.75,1.83l.35.33,0,0,.09.11a5.44,5.44,0,0,1-.42,7.31l-.07.07a5.55,5.55,0,0,1-1.78,1.13A5.62,5.62,0,0,1,137.61,238.15Zm-3.29-2.39.06.07.3.28a4.51,4.51,0,0,0,4.56.79,4.64,4.64,0,0,0,1.47-.93l.09-.1a4.19,4.19,0,0,0,1-1.43,4.46,4.46,0,0,0-.66-4.56,2.78,2.78,0,0,0-.26-.32l0,0h0a7.68,7.68,0,0,0-2.51-1.68,17.75,17.75,0,0,0-4-1.1c-.92-.18-1.93-.38-3.11-.67.26,1.18.43,2.2.59,3.12a17.46,17.46,0,0,0,1,4,7.51,7.51,0,0,0,1.58,2.52Z"></path><path class="cls-2" d="M111.61,242.77l-.28-.2-.18-.23.2-.42c.6-1.31,1-2.44,1.43-3.45a18.58,18.58,0,0,1,1.88-3.95,8.59,8.59,0,0,1,2.28-2.39l0,0,.28.38-.28-.38,0,0h0l.4-.3,0,0h0a5.41,5.41,0,0,1,5.58.18,5.19,5.19,0,0,1,1.55,1.51,5.35,5.35,0,0,1,.85,2,5.44,5.44,0,0,1-1.89,5.26l-.13.11v0l-.35.21a8.65,8.65,0,0,1-3.11,1.26,18.74,18.74,0,0,1-4.35.29c-1.08,0-2.3,0-3.76.06Zm5.94-9.91h0a8.14,8.14,0,0,0-2.1,2.18,18.47,18.47,0,0,0-1.78,3.78c-.34.86-.71,1.83-1.2,2.94,1.24,0,2.26,0,3.18,0a17.38,17.38,0,0,0,4.14-.26,7.7,7.7,0,0,0,2.76-1.12h0l0,0A2.87,2.87,0,0,0,123,240a4.47,4.47,0,0,0,1.57-4.35,4.3,4.3,0,0,0-.68-1.64l0,0a4.48,4.48,0,0,0-5.89-1.39l-.35.21Z"></path><path class="cls-2" d="M121.13,236.68a5.43,5.43,0,0,1-4.21-2l0,0,0,0-.27-.48a8.71,8.71,0,0,1-1.26-3.1,18.16,18.16,0,0,1-.28-4.35c0-1.08,0-2.29-.06-3.75l0-.45.47-.28.25.14-.09.41h0l.17-.36c1.33.61,2.47,1,3.47,1.43a19.17,19.17,0,0,1,4,1.88,8.56,8.56,0,0,1,2.38,2.28l.09.12h0l.23.33,0,0,0,.06a5.45,5.45,0,0,1-1.7,7.14,5.62,5.62,0,0,1-3.07,1Zm-3.78-3,.05.08.25.32a4.48,4.48,0,0,0,6,.88,4.3,4.3,0,0,0,1.26-1.29,4.47,4.47,0,0,0,.15-4.61q-.11-.2-.21-.36v0a7.74,7.74,0,0,0-2.19-2.1,17.87,17.87,0,0,0-3.77-1.79c-.87-.33-1.83-.7-2.94-1.19,0,1.2,0,2.24,0,3.17a18,18,0,0,0,.27,4.15,7.5,7.5,0,0,0,1.11,2.76Z"></path><path class="cls-2" d="M101.6,237.72a20.81,20.81,0,0,1-3.84-.49c-1.06-.19-2.26-.41-3.71-.59h-.26l-.25-.24-.14-.24.22-.34c.87-1.25,1.5-2.29,2-3.21A17.93,17.93,0,0,1,98.21,229a8.64,8.64,0,0,1,2.66-2l0,0,.22.42-.22-.42h0l.42-.21v0l.09,0a5.43,5.43,0,0,1,6.71,2.86l.1.17,0,0a5.21,5.21,0,0,1,.42,2,5.45,5.45,0,0,1-2.77,4.86l-.09,0,0,0-.45.18a8.91,8.91,0,0,1-3.29.71Zm-6.8-1.94c1.22.16,2.23.35,3.13.52a17.57,17.57,0,0,0,4.13.45,7.56,7.56,0,0,0,2.91-.61h0l0,0a2.47,2.47,0,0,0,.4-.2,4.49,4.49,0,0,0,2.3-4,4.4,4.4,0,0,0-.33-1.6l-.11-.05v-.2a4.49,4.49,0,0,0-5.52-2.31l-.39.15h0a8.06,8.06,0,0,0-2.44,1.78,18,18,0,0,0-2.41,3.41C96,233.89,95.47,234.77,94.8,235.78Z"></path><path class="cls-2" d="M105.16,232.36a5.44,5.44,0,0,1-4.75-2.78l0-.05-.06,0-.18-.5a8.61,8.61,0,0,1-.7-3.28,18.59,18.59,0,0,1,.47-4.34c.2-1.06.42-2.25.59-3.71l0-.42.56-.22.31.27c1.17.81,2.22,1.44,3.14,2a18.14,18.14,0,0,1,3.56,2.54,8.32,8.32,0,0,1,2,2.65l.07.14h0l.17.34,0,0,0,.08a5.44,5.44,0,0,1-1.16,5.47,5.21,5.21,0,0,1-1.67,1.23l0,0-.11,0a5.27,5.27,0,0,1-2.09.46Zm-4.15-3.7,0,.09c.06.12.13.24.2.36a4.57,4.57,0,0,0,4,2.3,4.46,4.46,0,0,0,1.68-.37l0,0,.13,0a4.42,4.42,0,0,0,1.36-1,4.49,4.49,0,0,0,1-4.52,3.54,3.54,0,0,0-.14-.39v0a7.8,7.8,0,0,0-1.79-2.44,17.65,17.65,0,0,0-3.41-2.42c-.79-.48-1.68-1-2.68-1.68-.16,1.19-.35,2.21-.52,3.13a18,18,0,0,0-.46,4.13,7.65,7.65,0,0,0,.62,2.91Z"></path><path class="cls-2" d="M86.61,230.1a8.42,8.42,0,0,1-1.33-.11,18.89,18.89,0,0,1-4.19-1.22c-1-.38-2.15-.81-3.55-1.23l-.25-.06-.2-.27L77,227l.28-.31c1.06-1.07,1.87-2,2.57-2.8A18.34,18.34,0,0,1,83,220.77a8.47,8.47,0,0,1,3-1.47h0l.14.46-.14-.46h0l.36-.1v0l.17,0a5.44,5.44,0,0,1,5.19,2.09,5.16,5.16,0,0,1,.92,1.88l0,.14a5.18,5.18,0,0,1,.08,2.11,5.42,5.42,0,0,1-3.58,4.3h0l0,.05-.56.11A9.26,9.26,0,0,1,86.61,230.1Zm-8.18-3.28c1.15.37,2.12.73,3,1.05a17.39,17.39,0,0,0,4,1.17,7.71,7.71,0,0,0,3-.1h0l.43-.14a4.48,4.48,0,0,0,3-3.55,4.43,4.43,0,0,0-.06-1.7l0-.15a4.47,4.47,0,0,0-5-3.27l-.41.07h0a7.89,7.89,0,0,0-2.71,1.33,17.83,17.83,0,0,0-3,2.94C80,225.17,79.27,226,78.43,226.82Z"></path><path class="cls-2" d="M90.17,225.34a4.76,4.76,0,0,1-.84-.07,5.44,5.44,0,0,1-4.3-3.58s0,0,0,0l-.06,0-.1-.53a8.74,8.74,0,0,1-.12-3.36A17.87,17.87,0,0,1,86,213.59c.37-1,.8-2.15,1.22-3.55l.1-.41.59-.12.26.31c1,1,1.94,1.82,2.75,2.52A18.81,18.81,0,0,1,94,215.46a8.54,8.54,0,0,1,1.46,3l0,.14h0l.11.36h0s0,.07,0,.1a5.44,5.44,0,0,1-4,6.13A5.81,5.81,0,0,1,90.17,225.34Zm-4.43-4.67.06.3a3.76,3.76,0,0,0,.13.4,4.5,4.5,0,0,0,3.55,3,4.44,4.44,0,0,0,1.74-.07l.11,0a4.73,4.73,0,0,0,1.56-.77,4.51,4.51,0,0,0,1.72-4.29c0-.14,0-.27-.08-.4v0A7.8,7.8,0,0,0,93.19,216a18.13,18.13,0,0,0-2.93-3c-.7-.61-1.48-1.29-2.36-2.13-.37,1.16-.73,2.13-1.05,3a17.9,17.9,0,0,0-1.17,4A7.56,7.56,0,0,0,85.74,220.67Z"></path><path class="cls-2" d="M72.94,219.94a8.45,8.45,0,0,1-2.88-.48,18.52,18.52,0,0,1-3.91-1.92c-.93-.55-2-1.17-3.28-1.83l.08-.48-.17.44-.27-.1-.07-.58.24-.16.32.25v0l-.21-.3c1.19-.84,2.14-1.61,3-2.28a18.25,18.25,0,0,1,3.6-2.49,8.74,8.74,0,0,1,3.17-.93h.06l0,.47,0-.47h0l.26,0h.28a5.42,5.42,0,0,1,4.74,3,5.36,5.36,0,0,1,.58,2v.09A5.45,5.45,0,0,1,74,219.85l-.11,0v0h-.92Zm-9.07-4.78c1.07.56,2,1.08,2.77,1.56a18,18,0,0,0,3.72,1.84,7.54,7.54,0,0,0,3,.41h0a2.59,2.59,0,0,0,.45-.06,4.48,4.48,0,0,0,3.53-3,4.33,4.33,0,0,0,.23-1.68v-.14a4.35,4.35,0,0,0-.48-1.69A4.47,4.47,0,0,0,73.16,210a2.8,2.8,0,0,0-.41,0h0a7.94,7.94,0,0,0-2.91.84,17.9,17.9,0,0,0-3.43,2.38C65.65,213.79,64.85,214.44,63.87,215.16Z"></path><path class="cls-2" d="M76.61,215.82a5.43,5.43,0,0,1-5.35-4.57v0h-.06v-.56a8.52,8.52,0,0,1,.46-3.32,18.18,18.18,0,0,1,1.93-3.92c.54-.92,1.16-2,1.82-3.28l.21-.4h.58l.19.35c.82,1.17,1.59,2.12,2.26,2.95a18.3,18.3,0,0,1,2.49,3.61,8.5,8.5,0,0,1,.93,3.16v.07h0l0,.37h0v.18a5.42,5.42,0,0,1-3,4.74,5.14,5.14,0,0,1-2,.58H77Zm-4.47-5.26v.13l.06.4a4.47,4.47,0,0,0,3,3.53,4.54,4.54,0,0,0,1.72.24H77a4.42,4.42,0,0,0,1.72-.48,4.47,4.47,0,0,0,2.43-3.92,2.94,2.94,0,0,0,0-.42v0a8,8,0,0,0-.84-2.9,17.76,17.76,0,0,0-2.38-3.43c-.58-.72-1.23-1.53-1.94-2.51-.58,1.09-1.1,2-1.56,2.77a17.6,17.6,0,0,0-1.85,3.72A7.83,7.83,0,0,0,72.14,210.56Z"></path><path class="cls-2" d="M60.48,207.56l-.38-.07a8.73,8.73,0,0,1-3.2-1,18.36,18.36,0,0,1-3.51-2.58c-.82-.7-1.75-1.49-2.92-2.37l-.22-.14-.09-.33v-.29l.38-.18c1.35-.64,2.42-1.22,3.36-1.74a18.15,18.15,0,0,1,4-1.83,8.64,8.64,0,0,1,3.28-.36h.1l.35,0,.18,0A5.45,5.45,0,0,1,66,200.46a5.33,5.33,0,0,1,.22,2.14l0,.18a5.4,5.4,0,0,1-5.39,4.74h-.26Zm.21-1a4.44,4.44,0,0,0,4-2.33,4.3,4.3,0,0,0,.53-1.68l0-.15a4.34,4.34,0,0,0-.19-1.66,4.47,4.47,0,0,0-3.44-3.08,2.93,2.93,0,0,0-.41-.07h0a7.86,7.86,0,0,0-3,.33,17.94,17.94,0,0,0-3.79,1.74c-.81.45-1.72,1-2.81,1.48,1,.76,1.76,1.42,2.46,2a18,18,0,0,0,3.34,2.46,7.6,7.6,0,0,0,2.84.92h.05Z"></path><path class="cls-2" d="M65,204.09l-.56,0a5.37,5.37,0,0,1-2.09-.64,5.44,5.44,0,0,1-2.81-4.84v-.1h-.06l.09-.49a8.75,8.75,0,0,1,1-3.18,18.53,18.53,0,0,1,2.58-3.52c.7-.81,1.49-1.74,2.37-2.91l.26-.35.57.09.09.28c.66,1.4,1.25,2.47,1.77,3.41a18.56,18.56,0,0,1,1.82,4,8.59,8.59,0,0,1,.36,3.28v.06h0l0,.46h0s0,.07,0,.11a5.45,5.45,0,0,1-3.73,4.16A5.39,5.39,0,0,1,65,204.09Zm-4.48-6v.1c0,.14,0,.27,0,.41a4.48,4.48,0,0,0,2.33,4,4.34,4.34,0,0,0,1.7.53,4.28,4.28,0,0,0,1.79-.17,4.48,4.48,0,0,0,3.08-3.44,2.93,2.93,0,0,0,.07-.41V199a7.73,7.73,0,0,0-.33-3,17.5,17.5,0,0,0-1.74-3.79c-.45-.82-1-1.72-1.48-2.81-.74,1-1.41,1.75-2,2.45a18,18,0,0,0-2.46,3.35,7.61,7.61,0,0,0-.92,2.83Z"></path><path class="cls-2" d="M55.18,190.51H55.1a5.28,5.28,0,0,1-1.1-.19,5.44,5.44,0,0,1-3.86-6.25,3.78,3.78,0,0,1,.1-.46l0-.11a8.53,8.53,0,0,1,.36-1l.17-.41.41.14a6.67,6.67,0,0,1,.89.18l.12,0a4.65,4.65,0,0,1,.49.17A5.4,5.4,0,0,1,56.15,187a5.1,5.1,0,0,1-.16,2.16,5.42,5.42,0,0,1-.41,1.06l-.11.2Zm-3.82-7.26c-.06.16-.11.32-.17.49l0,.1c0,.13-.06.26-.08.39a4.49,4.49,0,0,0,3.17,5.16,4.9,4.9,0,0,0,.62.13,5.89,5.89,0,0,0,.21-.59,4.5,4.5,0,0,0-2.72-5.41l-.39-.14-.1,0Z"></path><path class="cls-2" d="M47.4,175.39l-.19,0a6.21,6.21,0,0,1-1.07-.38,5.57,5.57,0,0,1-1.72-1.32,5.43,5.43,0,0,1-1-5.5,3.38,3.38,0,0,1,.18-.44l0-.1c.19-.34.35-.62.52-.88l.06-.1.3-.17.2.07c.3.1.6.22.92.35l.09,0a3.14,3.14,0,0,1,.46.26,5.4,5.4,0,0,1,2.64,4.92,5.3,5.3,0,0,1-.53,2.1,5.62,5.62,0,0,1-.6,1l-.14.12Zm-2.62-7.84c-.09.14-.17.29-.26.45a.6.6,0,0,1-.06.11l-.14.35a4.51,4.51,0,0,0,.82,4.55,4.46,4.46,0,0,0,1.42,1.09,4.12,4.12,0,0,0,.58.23,4.74,4.74,0,0,0,.31-.54,4.56,4.56,0,0,0,.44-1.73A4.49,4.49,0,0,0,45.71,168l-.36-.21-.09,0A4.89,4.89,0,0,0,44.78,167.55Z"></path></g><g id="LEAVES_-_TOP" data-name="LEAVES - TOP"><path class="cls-2" d="M138.07,42.84a5.59,5.59,0,0,1-2.11-.42,5.26,5.26,0,0,1-1.74-1.18l0,0-.08-.1A5.09,5.09,0,0,1,133,39.36a5.42,5.42,0,0,1,.95-5.51l.05-.06,0,0,.39-.34a8.76,8.76,0,0,1,2.84-1.78,18.93,18.93,0,0,1,4.24-1c1.06-.17,2.26-.37,3.69-.71l.25-.07.31.13.22.19-.1.41c-.39,1.45-.62,2.65-.83,3.7a18.11,18.11,0,0,1-1.16,4.22A8.7,8.7,0,0,1,142,41.21l-.05,0h0l-.27.28,0,0-.12.09A5.39,5.39,0,0,1,138.07,42.84ZM135,40.67a4.75,4.75,0,0,0,1.35.87,4.48,4.48,0,0,0,4.57-.66l.32-.26,0,0a7.89,7.89,0,0,0,1.66-2.5,17.74,17.74,0,0,0,1.11-4c.18-.92.38-1.93.67-3.11-1.21.26-2.22.43-3.12.59a17.21,17.21,0,0,0-4,1A7.55,7.55,0,0,0,135,34.1h0l0,0a3.91,3.91,0,0,0-.3.33,4.49,4.49,0,0,0-.79,4.56,4.35,4.35,0,0,0,.91,1.44Z"></path><path class="cls-2" d="M145.17,50.66l-.35-.13c-1.42-.37-2.61-.61-3.67-.82a18.11,18.11,0,0,1-4.22-1.16,8.7,8.7,0,0,1-2.75-1.83l-.1-.1h0l-.24-.23,0,0-.09-.11a5.43,5.43,0,0,1-.79-5.53,5.34,5.34,0,0,1,1.2-1.77l.11-.11a5.34,5.34,0,0,1,1.75-1.1,5.44,5.44,0,0,1,5.51.95l.06.05,0,0,.34.39a8.56,8.56,0,0,1,1.79,2.85,18.33,18.33,0,0,1,1,4.23c.18,1.06.38,2.26.72,3.69l.12.41ZM134.8,46a7.88,7.88,0,0,0,2.51,1.69,18.28,18.28,0,0,0,4,1.1c.92.18,1.93.38,3.11.67-.26-1.19-.43-2.21-.58-3.12a18,18,0,0,0-1-4,7.47,7.47,0,0,0-1.45-2.38l-.17-.19.36-.32-.39.28-.29-.26a4.49,4.49,0,0,0-4.56-.79,4.43,4.43,0,0,0-1.49,1l-.07.06a4.61,4.61,0,0,0-1,1.43,4.48,4.48,0,0,0,.66,4.57,4,4,0,0,0,.26.32l0,0Z"></path><path class="cls-2" d="M155.5,44.42a5.51,5.51,0,0,1-2.95-.87A5.31,5.31,0,0,1,151,42a5.44,5.44,0,0,1,1-7.29l0,0-.05-.06.49-.28a8.69,8.69,0,0,1,3.1-1.25,18.78,18.78,0,0,1,4.36-.29c1.07,0,2.29,0,3.75-.06l.38,0,.35.43-.17.36c-.63,1.37-1.07,2.51-1.46,3.51A18,18,0,0,1,161,41a8.45,8.45,0,0,1-2.28,2.39l0,0-.28-.39.28.39h0l-.29.21h0l-.16.08A5.38,5.38,0,0,1,155.5,44.42Zm-3.7-2.9a4.31,4.31,0,0,0,1.26,1.22,4.48,4.48,0,0,0,4.62.15,2.5,2.5,0,0,0,.35-.21l0,0a7.94,7.94,0,0,0,2.09-2.18,17.63,17.63,0,0,0,1.78-3.77c.34-.87.71-1.83,1.2-2.94-1.23,0-2.25,0-3.17,0a17.94,17.94,0,0,0-4.15.27,7.7,7.7,0,0,0-2.76,1.12h0l-.05,0-.36.28a4.47,4.47,0,0,0-1.56,4.34,4.22,4.22,0,0,0,.62,1.56h0Z"></path><path class="cls-2" d="M160.19,53.27l-.26-.16c-1.4-.65-2.54-1.09-3.54-1.48a17.89,17.89,0,0,1-3.95-1.88,8.41,8.41,0,0,1-2.39-2.27l0-.06h0l-.24-.32,0,0s0-.1-.08-.14a5.45,5.45,0,0,1,1.7-7.14,5.35,5.35,0,0,1,2-.85,5.44,5.44,0,0,1,5.26,1.9l0,0,0,0,.27.45a8.68,8.68,0,0,1,1.27,3.11,18.23,18.23,0,0,1,.28,4.35c0,1.08,0,2.3.06,3.76l-.46.17.48-.05,0,.3Zm-9.41-6.4A7.94,7.94,0,0,0,153,49a17.39,17.39,0,0,0,3.77,1.78c.87.34,1.84.71,2.94,1.2,0-1.21,0-2.25,0-3.17a17.94,17.94,0,0,0-.27-4.15,7.7,7.7,0,0,0-1.07-2.69l0,0,0,0h0l0-.07c-.09-.13-.18-.23-.26-.33a4.49,4.49,0,0,0-4.35-1.57,4.21,4.21,0,0,0-1.65.69,4.39,4.39,0,0,0-1.26,1.28,4.48,4.48,0,0,0-.15,4.62,4.05,4.05,0,0,0,.21.35Z"></path><path class="cls-2" d="M172.38,49a5.4,5.4,0,0,1-3.69-1.45,5.55,5.55,0,0,1-1.26-1.73l-.08-.13v0a5.3,5.3,0,0,1-.42-2,5.43,5.43,0,0,1,2.78-4.86l.1-.06,0,0,.45-.16a8.52,8.52,0,0,1,3.27-.7,18.51,18.51,0,0,1,4.33.47c1.06.2,2.26.42,3.71.6l.39,0,.26.51-.17.23-.39-.13v0l.31.21c-.84,1.2-1.46,2.25-2,3.17a18.22,18.22,0,0,1-2.54,3.57,8.45,8.45,0,0,1-2.66,2l-.34.17h0l-.24.08A5.44,5.44,0,0,1,172.38,49Zm-4-3.51a4.47,4.47,0,0,0,5.52,2.3l.39-.14h0a7.88,7.88,0,0,0,2.44-1.79,17.54,17.54,0,0,0,2.41-3.4c.48-.8,1-1.69,1.69-2.69-1.22-.17-2.23-.35-3.13-.52a18.11,18.11,0,0,0-4.13-.46,7.76,7.76,0,0,0-2.91.62h0l0,0a3.54,3.54,0,0,0-.4.21,4.47,4.47,0,0,0-2.3,4,4.43,4.43,0,0,0,.38,1.71Z"></path><path class="cls-2" d="M174.5,58.43l-.21-.2c-1.26-.88-2.31-1.51-3.23-2.06a18.14,18.14,0,0,1-3.56-2.54,8.48,8.48,0,0,1-2-2.66l0-.06h0l-.18-.36,0,0a.88.88,0,0,1-.05-.15,5.4,5.4,0,0,1,1.15-5.46,5.21,5.21,0,0,1,1.67-1.23l.11,0a5.32,5.32,0,0,1,2.11-.47,5.4,5.4,0,0,1,4.85,2.77l.06.11h.05l.16.43a8.61,8.61,0,0,1,.7,3.28,18.51,18.51,0,0,1-.47,4.33c-.2,1.06-.42,2.26-.59,3.71l-.08.46Zm-8.13-7.93a7.74,7.74,0,0,0,1.78,2.44,17.63,17.63,0,0,0,3.41,2.41c.79.48,1.68,1,2.68,1.69.17-1.2.35-2.22.52-3.13a17.56,17.56,0,0,0,.46-4.13,7.59,7.59,0,0,0-.52-2.67l-.13-.32c-.06-.14-.13-.25-.19-.37a4.49,4.49,0,0,0-3.92-2.3h-.1a4.31,4.31,0,0,0-1.72.39h0a4.39,4.39,0,0,0-1.44,1,4.49,4.49,0,0,0-.95,4.52c0,.13.09.26.14.39Z"></path><path class="cls-2" d="M188.21,56.42a5.45,5.45,0,0,1-4.33-2.15,5.24,5.24,0,0,1-.92-1.88l0-.15a5.31,5.31,0,0,1-.08-2.1,5.42,5.42,0,0,1,3.58-4.3l.17-.06v0l.38-.08a8.73,8.73,0,0,1,3.36-.12,18.89,18.89,0,0,1,4.19,1.22c1,.38,2.15.8,3.55,1.23l.26.06.2.29.09.27-.34.33c-1,1-1.81,1.94-2.51,2.75a18.72,18.72,0,0,1-3.12,3.07,8.63,8.63,0,0,1-3,1.46l-.05,0-.13-.45.13.45h0l-.53.15v0h0A5.07,5.07,0,0,1,188.21,56.42Zm-4.33-4.28a4.4,4.4,0,0,0,.76,1.55,4.48,4.48,0,0,0,4.29,1.72l.4-.07h0A7.89,7.89,0,0,0,192.08,54a18.22,18.22,0,0,0,3-2.94c.61-.7,1.29-1.48,2.13-2.35-1.18-.38-2.14-.74-3-1.06a18.45,18.45,0,0,0-4-1.17,7.72,7.72,0,0,0-3,.11h-.05c-.18,0-.3.09-.43.13a4.5,4.5,0,0,0-2.89,5.3Z"></path><path class="cls-2" d="M187.74,66l-.27-.32c-1-1-1.93-1.81-2.74-2.52a18.39,18.39,0,0,1-3.08-3.11,8.63,8.63,0,0,1-1.46-3l-.14-.48h0s0-.09,0-.13a5.45,5.45,0,0,1,10.51-2.68l.06,0,.12.62a8.73,8.73,0,0,1,.12,3.36,18.24,18.24,0,0,1-1.21,4.18c-.38,1-.81,2.16-1.23,3.56l-.13.41Zm-6.65-9.24a7.68,7.68,0,0,0,1.33,2.72,17.83,17.83,0,0,0,2.94,3c.69.61,1.47,1.29,2.35,2.12.36-1.15.73-2.12,1-3a17.6,17.6,0,0,0,1.17-4,7.67,7.67,0,0,0-.1-3h0l0-.11a2.65,2.65,0,0,0-.12-.37,4.49,4.49,0,0,0-5.29-2.89l-.07,0h0a4.34,4.34,0,0,0-1.57.77A4.49,4.49,0,0,0,181,56.34c0,.14.05.28.08.41Z"></path><path class="cls-2" d="M202.53,66.53v0h-.1a5.42,5.42,0,0,1-4.75-2.95,5.34,5.34,0,0,1-.57-2l0-.06v-.11a5.28,5.28,0,0,1,.28-2.12,5.45,5.45,0,0,1,4.22-3.61l0-.08h.66a8.74,8.74,0,0,1,3.32.46A18.59,18.59,0,0,1,209.46,58c.93.55,2,1.16,3.28,1.83l-.08.48.17-.45.27.11.07.57-.24.17-.32-.25v0l.21.29c-1.19.85-2.14,1.61-3,2.29a18.69,18.69,0,0,1-3.6,2.49,8.48,8.48,0,0,1-3.17.92H203l0-.47,0,.47h0Zm-4.48-5.14a4.21,4.21,0,0,0,.48,1.71,4.48,4.48,0,0,0,3.92,2.44h.44a7.75,7.75,0,0,0,2.91-.85,17.82,17.82,0,0,0,3.43-2.37c.73-.59,1.53-1.24,2.51-2-1.08-.57-2-1.09-2.76-1.56A17.82,17.82,0,0,0,205.25,57a7.76,7.76,0,0,0-2.95-.42h-.05c-.18,0-.31,0-.45,0a4.49,4.49,0,0,0-3.53,3,4.33,4.33,0,0,0-.23,1.68Z"></path><path class="cls-2" d="M199.46,75.78l-.2-.32c-.85-1.21-1.62-2.16-2.3-3a18.31,18.31,0,0,1-2.48-3.6,8.68,8.68,0,0,1-.93-3.17v-.15h0l0-.29h0v-.18a5.43,5.43,0,0,1,5-5.33h.13a5.33,5.33,0,0,1,2.12.28,5.43,5.43,0,0,1,3.61,4.27.06.06,0,0,0,0,0h.06v.56a8.55,8.55,0,0,1-.46,3.32A18.52,18.52,0,0,1,202,72.09c-.55.93-1.17,2-1.83,3.29l-.16.35Zm-5-10.26a7.81,7.81,0,0,0,.84,2.91,17.46,17.46,0,0,0,2.38,3.43c.58.73,1.23,1.53,1.94,2.51.57-1.08,1.09-2,1.56-2.76a17.65,17.65,0,0,0,1.85-3.73,7.54,7.54,0,0,0,.41-2.95h0v-.08c0-.15,0-.28-.06-.42a4.5,4.5,0,0,0-3-3.53,4.58,4.58,0,0,0-1.69-.23h-.12a4.25,4.25,0,0,0-1.7.48,4.46,4.46,0,0,0-2.43,3.92,2.94,2.94,0,0,0,0,.42Z"></path><path class="cls-2" d="M215.17,78.91l-.72,0h-.1l-.35,0-.18,0a5.45,5.45,0,0,1-4.16-3.73,5.4,5.4,0,0,1-.22-2.15l0-.11a5.33,5.33,0,0,1,.63-2A5.43,5.43,0,0,1,214.86,68h.1v-.07l.55.1a8.55,8.55,0,0,1,3.2,1,18.4,18.4,0,0,1,3.51,2.57c.82.7,1.75,1.49,2.92,2.37l.2.15.11.33v.29l-.36.17c-1.37.64-2.44,1.23-3.38,1.75a18.08,18.08,0,0,1-4,1.82A8,8,0,0,1,215.17,78.91Zm-.72-1a7.86,7.86,0,0,0,3-.33,18.22,18.22,0,0,0,3.79-1.74c.81-.45,1.72-1,2.81-1.49-1-.76-1.76-1.42-2.46-2a17.56,17.56,0,0,0-3.34-2.46,7.61,7.61,0,0,0-2.83-.92h-.05a3.94,3.94,0,0,0-.46,0,4.43,4.43,0,0,0-4,2.32A4.34,4.34,0,0,0,210.4,73l0,.11a4.57,4.57,0,0,0,.19,1.7A4.47,4.47,0,0,0,214,77.86l.41.07Z"></path><path class="cls-2" d="M209.83,87.51l-.57-.09-.13-.38c-.62-1.3-1.21-2.37-1.72-3.31a18.15,18.15,0,0,1-1.83-4,8.61,8.61,0,0,1-.36-3.28v-.06h0v0l0-.48h0v-.07a5.45,5.45,0,0,1,5.89-4.38,5.55,5.55,0,0,1,2.09.65,5.42,5.42,0,0,1,2.81,4.83v.14h0l-.07.43a8.79,8.79,0,0,1-1,3.21,18.36,18.36,0,0,1-2.58,3.51c-.69.82-1.49,1.75-2.37,2.92Zm-3.66-11h0a7.91,7.91,0,0,0,.33,3,17.94,17.94,0,0,0,1.74,3.79c.45.81.95,1.72,1.48,2.81.76-1,1.42-1.76,2-2.46a18,18,0,0,0,2.46-3.34,7.6,7.6,0,0,0,.92-2.84h0v-.09c0-.14,0-.27,0-.41a4.47,4.47,0,0,0-2.33-4,4.35,4.35,0,0,0-1.7-.54,4.54,4.54,0,0,0-1.8.18A4.47,4.47,0,0,0,206.25,76a2.93,2.93,0,0,0-.07.41Z"></path><path class="cls-2" d="M224.55,93.29h-.08a9,9,0,0,1-1-.19l-.12,0a3.79,3.79,0,0,1-.48-.17,5.42,5.42,0,0,1-3.45-4.39,5.26,5.26,0,0,1,.16-2.16,4.88,4.88,0,0,1,.42-1.06l.14-.28.31,0a6.38,6.38,0,0,1,1.13.2,5.45,5.45,0,0,1,3.85,6.24,4.4,4.4,0,0,1-.1.47l0,.11c-.12.36-.23.67-.35,1l-.11.25ZM220.74,86a4.1,4.1,0,0,0-.2.59,4.25,4.25,0,0,0-.14,1.77A4.48,4.48,0,0,0,223.25,92l.39.14.1,0,.51.11c.06-.16.12-.32.17-.49l0-.1.09-.4a4.48,4.48,0,0,0-1.6-4.33,4.34,4.34,0,0,0-1.58-.82A4.56,4.56,0,0,0,220.74,86Z"></path><path class="cls-2" d="M50.94,92.81l-.14-.26a5.54,5.54,0,0,1-.5-3.26A5.42,5.42,0,0,1,53.88,85l.45-.15.11,0c.36-.08.67-.13,1-.17l.4-.07.14.36c.11.29.22.61.32.94l0,.11c0,.19.07.35.1.51a5.45,5.45,0,0,1-4,6.13,5.4,5.4,0,0,1-1.12.16Zm4.25-7.17-.51.1-.11,0a2.65,2.65,0,0,0-.37.12,4.48,4.48,0,0,0-3,3.55,4.28,4.28,0,0,0,.08,1.78,5.26,5.26,0,0,0,.19.6c.21,0,.41-.07.62-.12a4.4,4.4,0,0,0,1.6-.77,4.46,4.46,0,0,0,1.72-4.29c0-.14,0-.27-.07-.4l0-.1C55.3,86,55.25,85.8,55.19,85.64Z"></path><path class="cls-2" d="M61.08,78.49a5.43,5.43,0,0,1-5.36-4.56s0,0,0,0h-.07v-.56A8.71,8.71,0,0,1,56.1,70,19.09,19.09,0,0,1,58,66.11c.55-.93,1.17-2,1.83-3.28l.16-.37.58-.05.23.37c.83,1.17,1.6,2.12,2.27,3a18.39,18.39,0,0,1,2.49,3.6,8.48,8.48,0,0,1,.92,3.17v0h0v0l0,.37h0a1.09,1.09,0,0,1,0,.18,5.43,5.43,0,0,1-3,4.75,5.34,5.34,0,0,1-2.08.58A3,3,0,0,1,61.08,78.49ZM56.6,73.27v0a2.46,2.46,0,0,0,.06.44,4.48,4.48,0,0,0,3,3.54,4.6,4.6,0,0,0,1.77.23,4.51,4.51,0,0,0,4.17-4.41,2.8,2.8,0,0,0,0-.41v0a7.76,7.76,0,0,0-.85-2.9,17.43,17.43,0,0,0-2.37-3.44c-.58-.72-1.23-1.52-2-2.5-.56,1.07-1.09,2-1.56,2.76A18.32,18.32,0,0,0,57,70.32a7.54,7.54,0,0,0-.41,3Z"></path><path class="cls-2" d="M65.21,82.07v0h-.1a5.44,5.44,0,0,1-4.74-3,5.36,5.36,0,0,1-.58-2V77A5.49,5.49,0,0,1,60,74.83a5.43,5.43,0,0,1,4.23-3.6l0-.09h.66a8.74,8.74,0,0,1,3.32.47,18.29,18.29,0,0,1,3.91,1.92c.93.55,2,1.17,3.29,1.83l-.09.48.21-.42.26.12,0,.58-.25.15c-1.28.89-2.23,1.66-3.07,2.33a18,18,0,0,1-3.6,2.49,8.69,8.69,0,0,1-3.16.93h-.07Zm-4.49-5.13a4.42,4.42,0,0,0,.48,1.71,4.49,4.49,0,0,0,3.92,2.43,2.94,2.94,0,0,0,.42,0h0a8.06,8.06,0,0,0,2.91-.84,18.22,18.22,0,0,0,3.43-2.38c.72-.58,1.53-1.23,2.5-1.94-1.07-.57-2-1.09-2.76-1.56a17.65,17.65,0,0,0-3.73-1.85A7.52,7.52,0,0,0,65,72.1h-.1a2.57,2.57,0,0,0-.4.06,4.5,4.5,0,0,0-3.54,3,4.42,4.42,0,0,0-.23,1.66h0Z"></path><path class="cls-2" d="M73.51,66.15l-.56,0a5.55,5.55,0,0,1-2.09-.65,5.43,5.43,0,0,1-2.81-4.84V60.5h0l.07-.42a8.54,8.54,0,0,1,1-3.21,18.11,18.11,0,0,1,2.58-3.52c.69-.81,1.49-1.74,2.37-2.91l.13-.2.31-.12h.3l.22.44c.62,1.31,1.2,2.38,1.72,3.32a18.62,18.62,0,0,1,1.83,4,8.59,8.59,0,0,1,.36,3.28v.06l-.48,0,.47.07a5.29,5.29,0,0,1-.08.54,5.42,5.42,0,0,1-5.33,4.4Zm-4.48-6v0a3.94,3.94,0,0,0,0,.46,4.49,4.49,0,0,0,2.32,4,4.44,4.44,0,0,0,1.71.53A4.3,4.3,0,0,0,74.82,65a4.47,4.47,0,0,0,3.08-3.44,2.93,2.93,0,0,0,.07-.41v0h0a7.82,7.82,0,0,0-.33-3,17.72,17.72,0,0,0-1.74-3.79c-.45-.81-1-1.72-1.48-2.81-.76,1-1.42,1.75-2,2.45A18,18,0,0,0,70,57.31,7.61,7.61,0,0,0,69,60.14Z"></path><path class="cls-2" d="M77.23,70.38l-.72,0h-.08l-.57,0v0a5.44,5.44,0,0,1-4.15-3.73,5.33,5.33,0,0,1-.22-2.14l0-.15a5.38,5.38,0,0,1,.63-2,5.43,5.43,0,0,1,4.77-2.81h.26v0l.39.07a8.56,8.56,0,0,1,3.19,1,18.06,18.06,0,0,1,3.51,2.58c.82.69,1.75,1.49,2.92,2.36l.35.24-.09.59-.28.1c-1.4.65-2.47,1.24-3.41,1.76a18.08,18.08,0,0,1-4,1.82A8,8,0,0,1,77.23,70.38Zm-.71-1a7.83,7.83,0,0,0,3-.33,17.5,17.5,0,0,0,3.79-1.74c.81-.45,1.72-1,2.81-1.48-1-.75-1.75-1.42-2.46-2a18,18,0,0,0-3.34-2.46,7.61,7.61,0,0,0-2.83-.92h-.1a2.82,2.82,0,0,0-.41,0,4.48,4.48,0,0,0-4.52,4l0,.18a4.38,4.38,0,0,0,.19,1.63,4.47,4.47,0,0,0,3.44,3.08,2.93,2.93,0,0,0,.41.07Z"></path><path class="cls-2" d="M87.85,56.16A5.22,5.22,0,0,1,86.38,56a5.32,5.32,0,0,1-1.95-1A5.45,5.45,0,0,1,82.5,49.7v0h-.06l.19-.54a8.77,8.77,0,0,1,1.57-3,18.62,18.62,0,0,1,3.15-3c.83-.69,1.77-1.46,2.84-2.46l.18-.2.34,0,.28,0,.13.47c.38,1.38.77,2.53,1.12,3.55a18,18,0,0,1,1.1,4.24,8.45,8.45,0,0,1-.21,3.29v.06L92.66,52l.46.12v0h0v0l-.1.4h0a1.17,1.17,0,0,1,0,.11,5.41,5.41,0,0,1-4.39,3.45A5.34,5.34,0,0,1,87.85,56.16Zm-4.3-6.78v0a3.81,3.81,0,0,0-.1.45A4.48,4.48,0,0,0,86.62,55a4.59,4.59,0,0,0,1.8.14,4.49,4.49,0,0,0,3.63-2.85c0-.14.1-.26.14-.4v0a7.86,7.86,0,0,0,.2-3,17.82,17.82,0,0,0-1.06-4c-.3-.88-.64-1.86-1-3-.91.83-1.7,1.48-2.41,2.06a17.75,17.75,0,0,0-3,2.87,7.71,7.71,0,0,0-1.4,2.63Z"></path><path class="cls-2" d="M91.35,61a9.09,9.09,0,0,1-2.2-.28h-.06l-.31-.1-.24-.09a5.44,5.44,0,0,1-3.45-4.4A5.29,5.29,0,0,1,85.24,54l0-.14a5.24,5.24,0,0,1,1-1.87,5.41,5.41,0,0,1,5.25-1.93l.12,0,0,0,.43.16a8.6,8.6,0,0,1,3,1.57,18.25,18.25,0,0,1,3,3.15c.69.83,1.46,1.77,2.46,2.84l.3.34-.19.51-.28,0c-1.5.41-2.65.8-3.67,1.15a18.59,18.59,0,0,1-4.24,1.1A8,8,0,0,1,91.35,61Zm-2-1.22a7.7,7.7,0,0,0,3,.2,18.31,18.31,0,0,0,4-1.05c.88-.31,1.86-.64,3-1-.83-.91-1.48-1.7-2.06-2.41a18.05,18.05,0,0,0-2.87-3,7.9,7.9,0,0,0-2.63-1.4h0l-.08,0L91.34,51A4.52,4.52,0,0,0,87,52.63a4.19,4.19,0,0,0-.8,1.52l0,.15A4.3,4.3,0,0,0,86,56a4.48,4.48,0,0,0,2.85,3.63l.39.14Z"></path><path class="cls-2" d="M103.73,48.8h-.26a5.15,5.15,0,0,1-2.1-.54,5.36,5.36,0,0,1-1.75-1.32,5.44,5.44,0,0,1-1-5.5v0l-.06,0,.28-.5a8.55,8.55,0,0,1,2.06-2.65,18.2,18.2,0,0,1,3.63-2.43c.93-.53,2-1.13,3.22-1.93l.21-.16.35,0,.27.11,0,.4c.14,1.5.33,2.7.49,3.76a18.31,18.31,0,0,1,.35,4.37,8.48,8.48,0,0,1-.78,3.21l0,0-.43-.2.43.2v0h0v0l-.16.35h0l-.07.11A5.4,5.4,0,0,1,103.73,48.8Zm-3.87-7.75-.17.31a3.69,3.69,0,0,0-.16.4,4.5,4.5,0,0,0,2.23,5.64,4.58,4.58,0,0,0,1.75.45,4.53,4.53,0,0,0,4.07-2.18l.21-.36v0h0a7.86,7.86,0,0,0,.72-2.94,17.78,17.78,0,0,0-.34-4.16c-.14-.92-.3-1.94-.43-3.15-1,.67-1.93,1.17-2.73,1.62A17.62,17.62,0,0,0,101.56,39,7.57,7.57,0,0,0,99.86,41.05Z"></path><path class="cls-2" d="M107.27,54.26l-.8,0a8.48,8.48,0,0,1-3.21-.78l-.05,0h0l-.35-.16v0l-.15-.09a5.44,5.44,0,0,1-2.14-6.93v0l.07-.09a5.32,5.32,0,0,1,1.3-1.7,5.43,5.43,0,0,1,5.5-1h0l0-.06.48.28a8.56,8.56,0,0,1,2.64,2.06,18.55,18.55,0,0,1,2.43,3.62c.53.94,1.13,2,1.93,3.23l.16.24v.64l-.5,0h-.11c-1.43.14-2.63.32-3.7.49A22.89,22.89,0,0,1,107.27,54.26Zm-3.68-1.7a7.86,7.86,0,0,0,2.94.72,17.78,17.78,0,0,0,4.16-.34c.92-.15,1.94-.31,3.14-.43-.65-1-1.16-1.93-1.61-2.74a17.93,17.93,0,0,0-2.31-3.46,7.77,7.77,0,0,0-2.34-1.83h0l-.08,0-.39-.16a4.52,4.52,0,0,0-4.55.82,4.44,4.44,0,0,0-1,1.32v0l-.08.12a4.61,4.61,0,0,0-.41,1.68,4.49,4.49,0,0,0,2.18,4.07l.36.2,0,0Z"></path><path class="cls-2" d="M120.64,44.32a5.6,5.6,0,0,1-1.21-.13,5.4,5.4,0,0,1-2-.89l-.07-.06A5.16,5.16,0,0,1,116,41.69a5.44,5.44,0,0,1,0-5.59l0-.08,0,0,.31-.38a8.8,8.8,0,0,1,2.49-2.26,18.16,18.16,0,0,1,4-1.75c1-.36,2.17-.77,3.51-1.35l.22-.09.34.05.24.14v.45c-.13,1.47-.15,2.69-.17,3.77a18.5,18.5,0,0,1-.42,4.36,8.55,8.55,0,0,1-1.32,3l0,0-.39-.27.39.27,0,0h0v0l-.22.33,0,0-.08.1A5.46,5.46,0,0,1,120.64,44.32Zm-3.59-8.17,0,0a2.75,2.75,0,0,0-.25.39A4.47,4.47,0,0,0,118,42.51a4.43,4.43,0,0,0,1.64.75A4.5,4.5,0,0,0,124,41.82c.09-.11.18-.21.26-.32l0,0a7.81,7.81,0,0,0,1.23-2.76,17.75,17.75,0,0,0,.38-4.16c0-.93,0-2,.12-3.17-1.15.47-2.11.81-3,1.11a17.92,17.92,0,0,0-3.8,1.67,7.63,7.63,0,0,0-2.22,2Z"></path><path class="cls-2" d="M129.94,50.71l-.29-.06c-1.54-.13-2.76-.16-3.84-.18a18.52,18.52,0,0,1-4.36-.41,8.58,8.58,0,0,1-3-1.33l-.05,0h0l-.28-.19v0l-.16-.14A5.45,5.45,0,0,1,116.19,43a5.33,5.33,0,0,1,.81-1.86v-.05l.12-.12a5.48,5.48,0,0,1,1.57-1.43,5.42,5.42,0,0,1,5.59,0l0-.06.46.37a8.83,8.83,0,0,1,2.26,2.5,18.16,18.16,0,0,1,1.75,4c.36,1,.77,2.16,1.34,3.51l.18.38Zm-11-2.8a8,8,0,0,0,2.76,1.22,17.73,17.73,0,0,0,4.16.39c.93,0,2,0,3.17.12-.46-1.12-.8-2.1-1.12-3a17.31,17.31,0,0,0-1.66-3.81,7.47,7.47,0,0,0-2-2.21h0l-.09-.07-.34-.21a4.48,4.48,0,0,0-4.62,0A4.37,4.37,0,0,0,118,41.48v.05l-.12.11a4.29,4.29,0,0,0-.72,1.6,4.49,4.49,0,0,0,1.44,4.38,3.82,3.82,0,0,0,.32.27l0,0Z"></path><path class="cls-2" d="M231.25,109.09l-.31-.07a8.67,8.67,0,0,1-1-.37l-.1,0a4.72,4.72,0,0,1-.46-.26,5.44,5.44,0,0,1-2.63-4.93,5.29,5.29,0,0,1,.53-2.09,6,6,0,0,1,.6-1l.19-.24.31.07a5.76,5.76,0,0,1,1.07.39,5.45,5.45,0,0,1,2.71,6.82,3.38,3.38,0,0,1-.18.44l0,.1c-.19.34-.35.63-.53.89Zm-2.78-7.9a5.67,5.67,0,0,0-.31.55,4.56,4.56,0,0,0-.44,1.73,4.49,4.49,0,0,0,2.18,4.07l.36.2.09.05.48.19c.09-.14.17-.3.26-.46a.56.56,0,0,1,0-.08l.15-.38a4.49,4.49,0,0,0-.82-4.55,4.43,4.43,0,0,0-1.42-1.08A5.89,5.89,0,0,0,228.47,101.19Z"></path><path class="cls-2" d="M44.57,108.55l-.33-.24a6.62,6.62,0,0,1-.56-1,5.45,5.45,0,0,1,2.31-7,4.16,4.16,0,0,1,.42-.23l.1,0c.35-.14.66-.25,1-.34l.11,0,.29,0L48,100c.17.27.32.56.48.87l0,.08c.08.2.14.35.19.51a5.4,5.4,0,0,1-1.15,5.46,5.19,5.19,0,0,1-1.76,1.27,5.62,5.62,0,0,1-1.07.36Zm2.83-7.77-.49.19-.1,0-.35.18a4.5,4.5,0,0,0-2.3,4,4.46,4.46,0,0,0,.39,1.75,5.86,5.86,0,0,0,.3.55,5.24,5.24,0,0,0,.58-.22,4.43,4.43,0,0,0,1.45-1,4.49,4.49,0,0,0,.95-4.52c0-.14-.09-.26-.15-.39l0-.09Z"></path></g><path id="HEALTH_WELLNESS_COACHES" data-name="HEALTH &amp; WELLNESS COACHES" class="cls-2" d="M69.74,159.06l.44,1.25-2.24.79.81,2.3,2.24-.79.44,1.24-5.66,2-.44-1.25,2.27-.8-.81-2.3-2.27.8-.44-1.24Zm2.83,7.49,2,4.08-1.06.51-1.39-2.9-1.1.52,1.23,2.56-1.06.51-1.23-2.56-1.13.55,1.4,2.94-1.06.51-2-4.13Zm4.37,8.2.64,1-3.78,5.38L73.07,180l.86-1.17-1.34-2.16-1.43.24-.71-1.14Zm-2.27,3,1.24-1.7-2.08.34Zm5.68,2.14.81,1-3.8,2.94,1.84,2.37-1,.74-2.65-3.41Zm3.8,6.53-1.24-1.34.89-.83,3.38,3.65-.89.83-1.24-1.34-3.52,3.25-.9-1ZM89,189.7l1,.87-1.57,1.79,1.83,1.6,1.57-1.78,1,.87-4,4.52-1-.87,1.59-1.82-1.83-1.61L86,195.09l-1-.87Zm9.09,13.64a2.73,2.73,0,0,1-1.85-.37,1.8,1.8,0,0,1-.79-2.54h0a1.73,1.73,0,0,1,1.86-.78,2,2,0,0,1,.28-1.24v0A1.66,1.66,0,0,1,100,198a1.55,1.55,0,0,1,.63,2.18h0a1.64,1.64,0,0,1-1.9.66L99,202c.33-.15.68-.35,1-.56l.54,1a11.22,11.22,0,0,1-1.35.65l.28,1.22-1.18.06Zm-.23-1-.36-1.6a.89.89,0,0,0-.89.37h0a.76.76,0,0,0,.34,1A1.47,1.47,0,0,0,97.84,202.31Zm1.74-2.65v0a.52.52,0,0,0-.19-.77.55.55,0,0,0-.81.21h0a1.09,1.09,0,0,0-.1.82C99,200,99.38,200,99.58,199.66Zm7.25,2.43,1.31.53-.37,4.24,2.78-3.29,1,.43-.28,4.29L114,205l1.28.51-4.17,4.84-1.06-.43.21-4.15-2.73,3.14-1.07-.43Zm10.79,4,4.39,1.15-.3,1.14-3.12-.82-.3,1.18,2.74.72-.3,1.13-2.74-.71-.32,1.22,3.16.82-.3,1.14-4.43-1.15Zm7.06,1.68L126,208l-.75,4.75,3,.47-.19,1.19-4.27-.68Zm6.76.93,1.31.08-.29,4.8,3,.18-.07,1.2-4.31-.26Zm6.77.3,1.22-.05,3,3.57-.15-3.69,1.3-.05.25,6-1.12,0-3.07-3.69.17,3.82-1.31.05Zm8.23-.54,4.48-.68.17,1.16-3.18.49.19,1.2,2.8-.43.17,1.17-2.8.42.19,1.25,3.23-.49.17,1.16-4.52.69Zm8,3.83.52-1.1a2.74,2.74,0,0,0,1.92.26c.52-.13.78-.42.7-.76v0c-.08-.32-.32-.44-1.36-.44-1.25,0-2.09-.12-2.39-1.28h0a1.88,1.88,0,0,1,1.58-2.28,3.47,3.47,0,0,1,2.35.18l-.41,1.14a2.83,2.83,0,0,0-1.66-.19c-.49.13-.69.42-.62.7v0c.09.38.38.44,1.45.44,1.26,0,2,.26,2.29,1.27v0c.3,1.15-.41,2-1.67,2.35A3.75,3.75,0,0,1,154.47,212.32Zm7.16-2,.41-1.14a2.79,2.79,0,0,0,1.93.07c.51-.19.74-.5.62-.83v0c-.12-.31-.37-.4-1.4-.3-1.24.13-2.09.08-2.5-1v0a1.89,1.89,0,0,1,1.36-2.42,3.43,3.43,0,0,1,2.36,0l-.31,1.17a2.81,2.81,0,0,0-1.67,0c-.47.18-.64.49-.54.76v0c.14.37.42.4,1.49.29,1.25-.12,2,.06,2.41,1v0a1.9,1.9,0,0,1-1.43,2.5A3.76,3.76,0,0,1,161.63,210.35Zm10.15-6.52h0a3.06,3.06,0,0,1,1.21-4.25,3.14,3.14,0,0,1,2.52-.35l-.26,1.26a2.23,2.23,0,0,0-1.67.16,1.77,1.77,0,0,0-.6,2.48v0a1.78,1.78,0,0,0,2.45.79,2.16,2.16,0,0,0,1-1.39l1.15.33A3.06,3.06,0,0,1,176,205,3,3,0,0,1,171.78,203.83Zm6.88-4h0a3.12,3.12,0,0,1,.77-4.4,3.07,3.07,0,0,1,4.39.64h0a3.19,3.19,0,0,1-5.16,3.76Zm4.05-2.94h0a1.82,1.82,0,0,0-2.58-.46,1.8,1.8,0,0,0-.36,2.57v0a1.83,1.83,0,0,0,2.58.46A1.8,1.8,0,0,0,182.71,196.88Zm2.59-6.13.9-.83,6,2.74-1,.93-1.31-.62L188,194.68l.5,1.37-1,.91Zm3.41,1.67-1.9-.9.72,2Zm2.91-3.48h0a3.06,3.06,0,0,1-.26-4.41,3.18,3.18,0,0,1,2.27-1.16l.17,1.28a2.2,2.2,0,0,0-1.53.7,1.78,1.78,0,0,0,.25,2.54v0a1.79,1.79,0,0,0,2.57-.06,2.14,2.14,0,0,0,.52-1.65l1.19-.07a3.08,3.08,0,0,1-.82,2.56A3,3,0,0,1,191.62,188.94Zm3-8.14.76-1.08,1.95,1.37,1.4-2-1.94-1.37.76-1.08,4.91,3.46-.76,1.08-2-1.39-1.41,2,2,1.39-.76,1.08Zm4.5-6.76.66-1.14,5.2,3-.67,1.14Zm2.14-3.79.51-1.1,4.55-1-3.36-1.57.55-1.18,5.45,2.54-.47,1-4.69,1,3.46,1.61-.55,1.19Zm6.12-6.35h0a3.08,3.08,0,0,1-1.95-4,3.27,3.27,0,0,1,1.52-2l.69,1.1a2.23,2.23,0,0,0-1.07,1.3,1.81,1.81,0,0,0,1.23,2.23h0a1.79,1.79,0,0,0,2.38-1.12,2.16,2.16,0,0,0,.05-1.3l-.81-.27-.42,1.27-1.09-.36.83-2.48,2.47.82a3.84,3.84,0,0,1,.1,2.74A3,3,0,0,1,207.34,163.9Z"></path><path id="THE_NATIONAL_NATIONAL_BOARD_FOR" data-name="THE NATIONAL NATIONAL BOARD FOR" class="cls-2" d="M70.18,104.18l-.82,1.63-1.09-.55,2.25-4.44,1.09.55L70.78,103l4.27,2.17-.6,1.18Zm2-6.31.73-1.1,2,1.31,1.34-2-2-1.31.72-1.1,5,3.3L79.32,98l-2-1.32-1.34,2,2,1.32-.73,1.1Zm5.08-7.31,2.89-3.49.91.75-2,2.48.93.78L81.8,88.9l.9.75-1.8,2.18,1,.8L84,90.12l.9.75-2.91,3.52ZM86,81.11l.93-.8,4.54,1-2.4-2.81,1-.85L94,82.21l-.85.73-4.7-1,2.48,2.91-1,.85Zm8.84-7,1-.68,5.49,3.62-1.15.76L99,77l-2.11,1.41.29,1.42-1.12.75ZM98,76.33l-1.74-1.18.41,2.06Zm4.06-5-1.62.85-.56-1.08,4.4-2.32.57,1.08-1.62.85,2.23,4.24-1.17.62Zm5.27-3.9,1.21-.52,2.35,5.53-1.22.52Zm5.43,1v0a3.19,3.19,0,0,1,6.09-1.92v0a3.19,3.19,0,0,1-6.08,1.92Zm4.77-1.49v0a1.83,1.83,0,0,0-2.3-1.26A1.8,1.8,0,0,0,114.05,68v0a1.83,1.83,0,0,0,2.3,1.26A1.8,1.8,0,0,0,117.52,66.91Zm3.94-4.12,1.2-.22,3.42,3.14-.65-3.64,1.28-.23,1.07,5.9-1.11.2-3.54-3.23.68,3.75-1.28.23Zm11.15-1.58,1.21-.07L136.75,67l-1.38.08-.62-1.31-2.54.15-.47,1.38-1.34.08Zm1.59,3.45-.91-1.9-.68,2Zm5.49-3.57,1.32.07L140.77,66l3,.15-.06,1.2-4.31-.21ZM152,62.38l2.72.6a2.18,2.18,0,0,1,1.42.86,1.35,1.35,0,0,1,.18,1.08v0A1.4,1.4,0,0,1,155.31,66a1.48,1.48,0,0,1,.78,1.69h0c-.23,1.08-1.22,1.42-2.55,1.13l-2.79-.62Zm2,4.05-1.5-.33-.28,1.29,1.53.34c.57.12,1,0,1.06-.44h0C154.93,66.88,154.69,66.57,154,66.43Zm1-1.57c.09-.39-.17-.67-.71-.79L153,63.79,152.77,65l1.19.26c.57.12,1,0,1.07-.42Zm4.13,2.33v0a3.2,3.2,0,0,1,6,2.1h0a3.11,3.11,0,0,1-4.05,1.88A3.07,3.07,0,0,1,159.16,67.19Zm4.72,1.65h0a1.83,1.83,0,0,0-1.1-2.39,1.8,1.8,0,0,0-2.32,1.17v0A1.82,1.82,0,0,0,161.56,70,1.78,1.78,0,0,0,163.88,68.84ZM171,68.6l1.09.54-.35,6.56-1.24-.61.1-1.45-2.28-1.12-1.09,1L166,72.9Zm-.31,3.79.14-2.1-1.57,1.39Zm6.58-.4,2.31,1.49a2.41,2.41,0,0,1,1.14,1.46,1.9,1.9,0,0,1-.31,1.43v0a1.89,1.89,0,0,1-2.09.87l.07,2.6-1.3-.84,0-2.32-.88-.56-1,1.62L174,77Zm.65,3.9a.87.87,0,0,0,1.31-.17h0c.31-.48.14-.94-.4-1.29l-1.11-.71-.93,1.45Zm6.48.94,1.81,1.49a3,3,0,0,1,.57,4.34h0a3,3,0,0,1-4.38.3l-1.81-1.49Zm.26,1.77-2.3,2.8.79.64a1.71,1.71,0,0,0,2.54-.23h0a1.75,1.75,0,0,0-.25-2.56Zm9.88,7.59,3,3.47-.91.78L194.5,88l-1,.83L195.41,91l-.92.79-1.87-2.18-1.76,1.52-.86-1ZM197,93.87h0a3.19,3.19,0,0,1,3.6,5.27h0a3.19,3.19,0,0,1-3.6-5.27ZM199.82,98h0a1.83,1.83,0,0,0,.54-2.57,1.79,1.79,0,0,0-2.56-.44h0a1.83,1.83,0,0,0-.54,2.57A1.8,1.8,0,0,0,199.82,98Zm5.06,2.57,1.26,2.44a2.4,2.4,0,0,1,.26,1.84,1.87,1.87,0,0,1-1,1.08h0a1.86,1.86,0,0,1-2.24-.29l-1.24,2.28-.7-1.37,1.12-2-.48-.92-1.71.88-.6-1.18Zm-1.37,3.7a.87.87,0,0,0,1.22.51h0c.51-.26.58-.74.29-1.31l-.6-1.17-1.53.79Z"></path><path id="NBHWC" class="cls-2" d="M28.14,119.07h5.32L51,141.66V119.07H56.6v32.66H51.79l-18-23.23v23.23H28.14Zm45.26,0H88.05c3.73,0,6.67,1,8.53,2.9a7.3,7.3,0,0,1,2.2,5.41v.09a7.78,7.78,0,0,1-4.67,7.28c3.83,1.31,6.49,3.5,6.49,7.93v.1c0,5.83-4.81,8.95-12.09,8.95H73.4ZM93,128.31c0-2.56-2.06-4.15-5.74-4.15H79v8.68h7.84c3.69,0,6.16-1.45,6.16-4.43Zm-4.9,9.38H79v9h9.52c3.92,0,6.3-1.54,6.3-4.48v-.09C94.86,139.32,92.66,137.69,88.14,137.69Zm27.34-18.62h5.74v13.58H136.8V119.07h5.74v32.66H136.8V138H121.22v13.76h-5.74Zm41.33,0H163l7.79,24.22,8-24.31h4.85l8,24.31,7.79-24.22h6L194.19,152h-5l-8-23.47-8,23.47H168.2Zm59.73,16.43v-.1a16.53,16.53,0,0,1,16.84-16.89,17,17,0,0,1,12.78,5.09l-3.68,4.25c-2.62-2.43-5.42-4.06-9.15-4.06-6.2,0-10.78,5.13-10.78,11.52v.09c0,6.4,4.53,11.57,10.78,11.57,4,0,6.58-1.58,9.38-4.19l3.68,3.73c-3.4,3.54-7.13,5.78-13.25,5.78A16.42,16.42,0,0,1,216.54,135.5Z"></path><path class="cls-2" d="M252.39,116.32V117H251v3.64h-.87V117h-1.39v-.72Zm4.7,4.36-.16-2.56c0-.34,0-.76,0-1.22h0c-.11.38-.24.9-.36,1.3l-.79,2.41h-.89l-.79-2.48c-.08-.33-.21-.85-.3-1.23h-.05c0,.4,0,.82,0,1.22l-.16,2.56h-.84l.32-4.36h1.3l.75,2.13c.1.34.18.66.29,1.11h0l.3-1.09.75-2.15h1.25l.34,4.36Z"></path></g></g></svg> 